<mxfile host="Electron" modified="2024-06-06T09:21:16.897Z" agent="Mozilla/5.0 (Macintosh; Intel Mac OS X 10_15_7) AppleWebKit/537.36 (KHTML, like Gecko) draw.io/24.4.8 Chrome/124.0.6367.207 Electron/30.0.6 Safari/537.36" etag="5T2i4zCxbY5uU7UOZpRz" version="24.4.8" type="device" pages="4">
  <diagram id="jKqm-BBe_C6TdLCJHaaA" name="data-engine-lineage-capture">
    <mxGraphModel dx="1500" dy="1030" grid="1" gridSize="10" guides="1" tooltips="1" connect="1" arrows="1" fold="1" page="1" pageScale="1" pageWidth="827" pageHeight="1169" background="none" math="0" shadow="0">
      <root>
        <mxCell id="F5DwQxN1i41J6cmo2keJ-0" />
        <mxCell id="F5DwQxN1i41J6cmo2keJ-1" parent="F5DwQxN1i41J6cmo2keJ-0" />
        <mxCell id="RsBkJjgl5C9huqkaR5t4-1" value="" style="rounded=1;whiteSpace=wrap;html=1;arcSize=6;strokeColor=#82b366;fillColor=#d5e8d4;" parent="F5DwQxN1i41J6cmo2keJ-1" vertex="1">
          <mxGeometry x="1098" y="454.5" width="180" height="188" as="geometry" />
        </mxCell>
        <mxCell id="9pXi87xlg9qnyZ723WzW-1" style="edgeStyle=orthogonalEdgeStyle;rounded=0;orthogonalLoop=1;jettySize=auto;html=1;entryX=1;entryY=0.5;entryDx=0;entryDy=0;" parent="F5DwQxN1i41J6cmo2keJ-1" source="uFygxR61EF1FGyPuVaYo-5" target="uFygxR61EF1FGyPuVaYo-6" edge="1">
          <mxGeometry relative="1" as="geometry" />
        </mxCell>
        <mxCell id="xCCksxsWfp4zMxSfkOW--29" style="edgeStyle=orthogonalEdgeStyle;rounded=0;orthogonalLoop=1;jettySize=auto;html=1;entryX=0.505;entryY=-0.215;entryDx=0;entryDy=0;entryPerimeter=0;startArrow=none;startFill=0;endArrow=classic;endFill=1;strokeColor=default;" parent="F5DwQxN1i41J6cmo2keJ-1" source="uFygxR61EF1FGyPuVaYo-5" target="xCCksxsWfp4zMxSfkOW--27" edge="1">
          <mxGeometry relative="1" as="geometry" />
        </mxCell>
        <mxCell id="uFygxR61EF1FGyPuVaYo-5" value="Data Engine Proxy&lt;span style=&quot;color: rgba(0 , 0 , 0 , 0) ; font-family: monospace ; font-size: 0px&quot;&gt;%3CmxGraphModel%3E%3Croot%3E%3CmxCell%20id%3D%220%22%2F%3E%3CmxCell%20id%3D%221%22%20parent%3D%220%22%2F%3E%3CmxCell%20id%3D%222%22%20style%3D%22edgeStyle%3Dnone%3Brounded%3D0%3BorthogonalLoop%3D1%3BjettySize%3Dauto%3Bhtml%3D1%3BexitX%3D0%3BexitY%3D0.25%3BexitDx%3D0%3BexitDy%3D0%3BstartArrow%3Dclassic%3BstartFill%3D1%3BentryX%3D0.85%3BentryY%3D0.95%3BentryDx%3D0%3BentryDy%3D0%3BentryPerimeter%3D0%3B%22%20edge%3D%221%22%20source%3D%224%22%20target%3D%229%22%20parent%3D%221%22%3E%3CmxGeometry%20relative%3D%221%22%20as%3D%22geometry%22%3E%3CmxPoint%20x%3D%22330%22%20y%3D%22420%22%20as%3D%22targetPoint%22%2F%3E%3C%2FmxGeometry%3E%3C%2FmxCell%3E%3CmxCell%20id%3D%223%22%20style%3D%22edgeStyle%3Dnone%3Brounded%3D0%3BorthogonalLoop%3D1%3BjettySize%3Dauto%3Bhtml%3D1%3BexitX%3D0.25%3BexitY%3D1%3BexitDx%3D0%3BexitDy%3D0%3BentryX%3D1%3BentryY%3D0%3BentryDx%3D0%3BentryDy%3D0%3BstartArrow%3Dclassic%3BstartFill%3D1%3B%22%20edge%3D%221%22%20source%3D%224%22%20target%3D%2236%22%20parent%3D%221%22%3E%3CmxGeometry%20relative%3D%221%22%20as%3D%22geometry%22%2F%3E%3C%2FmxCell%3E%3CmxCell%20id%3D%224%22%20value%3D%22Integration%20Daemon%22%20style%3D%22rounded%3D0%3BwhiteSpace%3Dwrap%3Bhtml%3D1%3BverticalAlign%3Dmiddle%3BfillColor%3D%23d5e8d4%3BstrokeColor%3D%2382b366%3Bshadow%3D1%3Balign%3Dcenter%3B%22%20vertex%3D%221%22%20parent%3D%221%22%3E%3CmxGeometry%20x%3D%22390%22%20y%3D%22380%22%20width%3D%22181%22%20height%3D%22280%22%20as%3D%22geometry%22%2F%3E%3C%2FmxCell%3E%3CmxCell%20id%3D%225%22%20style%3D%22edgeStyle%3DorthogonalEdgeStyle%3Brounded%3D0%3BorthogonalLoop%3D1%3BjettySize%3Dauto%3Bhtml%3D1%3BexitX%3D0%3BexitY%3D0.5%3BexitDx%3D0%3BexitDy%3D0%3BstartArrow%3Dclassic%3BstartFill%3D1%3B%22%20edge%3D%221%22%20source%3D%226%22%20target%3D%224%22%20parent%3D%221%22%3E%3CmxGeometry%20relative%3D%221%22%20as%3D%22geometry%22%2F%3E%3C%2FmxCell%3E%3CmxCell%20id%3D%226%22%20value%3D%22Metadata%20Access%20Point%20(or%20Metadata%20Server)%22%20style%3D%22rounded%3D0%3BwhiteSpace%3Dwrap%3Bhtml%3D1%3BverticalAlign%3Dmiddle%3BfillColor%3D%23fff2cc%3BstrokeColor%3D%23d6b656%3Bshadow%3D1%3Balign%3Dcenter%3B%22%20vertex%3D%221%22%20parent%3D%221%22%3E%3CmxGeometry%20x%3D%22660%22%20y%3D%22470%22%20width%3D%22140%22%20height%3D%22100%22%20as%3D%22geometry%22%2F%3E%3C%2FmxCell%3E%3CmxCell%20id%3D%227%22%20style%3D%22edgeStyle%3DorthogonalEdgeStyle%3Brounded%3D0%3BorthogonalLoop%3D1%3BjettySize%3Dauto%3Bhtml%3D1%3BexitX%3D0%3BexitY%3D0.5%3BexitDx%3D0%3BexitDy%3D0%3BstartArrow%3Dclassic%3BstartFill%3D1%3B%22%20edge%3D%221%22%20source%3D%228%22%20target%3D%226%22%20parent%3D%221%22%3E%3CmxGeometry%20relative%3D%221%22%20as%3D%22geometry%22%2F%3E%3C%2FmxCell%3E%3CmxCell%20id%3D%228%22%20value%3D%22Cohort%22%20style%3D%22ellipse%3BwhiteSpace%3Dwrap%3Bhtml%3D1%3B%22%20vertex%3D%221%22%20parent%3D%221%22%3E%3CmxGeometry%20x%3D%22870%22%20y%3D%22480%22%20width%3D%22120%22%20height%3D%2280%22%20as%3D%22geometry%22%2F%3E%3C%2FmxCell%3E%3CmxCell%20id%3D%229%22%20value%3D%22Database%26lt%3Bbr%26gt%3BServers%22%20style%3D%22shape%3Dcylinder%3BwhiteSpace%3Dwrap%3Bhtml%3D1%3BboundedLbl%3D1%3BbackgroundOutline%3D1%3BfillColor%3D%23e1d5e7%3BstrokeColor%3D%239673a6%3Bshadow%3D1%3B%22%20vertex%3D%221%22%20parent%3D%221%22%3E%3CmxGeometry%20x%3D%22230%22%20y%3D%22290%22%20width%3D%2275%22%20height%3D%2270%22%20as%3D%22geometry%22%2F%3E%3C%2FmxCell%3E%3CmxCell%20id%3D%2210%22%20style%3D%22edgeStyle%3Dnone%3Brounded%3D0%3BorthogonalLoop%3D1%3BjettySize%3Dauto%3Bhtml%3D1%3BexitX%3D1%3BexitY%3D0.5%3BexitDx%3D0%3BexitDy%3D0%3BstartArrow%3Dclassic%3BstartFill%3D1%3B%22%20edge%3D%221%22%20source%3D%2211%22%20target%3D%224%22%20parent%3D%221%22%3E%3CmxGeometry%20relative%3D%221%22%20as%3D%22geometry%22%2F%3E%3C%2FmxCell%3E%3CmxCell%20id%3D%2211%22%20value%3D%22Document%26lt%3Bbr%26gt%3BManagers%22%20style%3D%22rounded%3D0%3BwhiteSpace%3Dwrap%3Bhtml%3D1%3BfillColor%3D%23ffe6cc%3BstrokeColor%3D%23d79b00%3Bshadow%3D1%3BverticalAlign%3Dbottom%3B%22%20vertex%3D%221%22%20parent%3D%221%22%3E%3CmxGeometry%20x%3D%22130%22%20y%3D%22390%22%20width%3D%22120%22%20height%3D%22110%22%20as%3D%22geometry%22%2F%3E%3C%2FmxCell%3E%3CmxCell%20id%3D%2212%22%20value%3D%22%22%20style%3D%22group%3Bshadow%3D1%3B%22%20vertex%3D%221%22%20connectable%3D%220%22%20parent%3D%221%22%3E%3CmxGeometry%20x%3D%22320%22%20y%3D%22230%22%20width%3D%22105%22%20height%3D%2260%22%20as%3D%22geometry%22%2F%3E%3C%2FmxCell%3E%3CmxCell%20id%3D%2213%22%20value%3D%22%22%20style%3D%22rounded%3D1%3BwhiteSpace%3Dwrap%3Bhtml%3D1%3BfillColor%3D%23fff2cc%3BstrokeColor%3D%23d6b656%3Bshadow%3D1%3B%22%20vertex%3D%221%22%20parent%3D%2212%22%3E%3CmxGeometry%20x%3D%225%22%20width%3D%2250%22%20height%3D%2220%22%20as%3D%22geometry%22%2F%3E%3C%2FmxCell%3E%3CmxCell%20id%3D%2214%22%20value%3D%22File%20systems%22%20style%3D%22rounded%3D1%3BwhiteSpace%3Dwrap%3Bhtml%3D1%3BfillColor%3D%23fff2cc%3BstrokeColor%3D%23d6b656%3Bshadow%3D1%3B%22%20vertex%3D%221%22%20parent%3D%2212%22%3E%3CmxGeometry%20x%3D%225%22%20y%3D%2210%22%20width%3D%22100%22%20height%3D%2250%22%20as%3D%22geometry%22%2F%3E%3C%2FmxCell%3E%3CmxCell%20id%3D%2215%22%20value%3D%22%22%20style%3D%22group%22%20vertex%3D%221%22%20connectable%3D%220%22%20parent%3D%221%22%3E%3CmxGeometry%20x%3D%22130%22%20y%3D%22401%22%20width%3D%22110%22%20height%3D%2260%22%20as%3D%22geometry%22%2F%3E%3C%2FmxCell%3E%3CmxCell%20id%3D%2216%22%20value%3D%22%22%20style%3D%22rounded%3D1%3BwhiteSpace%3Dwrap%3Bhtml%3D1%3B%22%20vertex%3D%221%22%20parent%3D%2215%22%3E%3CmxGeometry%20x%3D%2210%22%20width%3D%2250%22%20height%3D%2220%22%20as%3D%22geometry%22%2F%3E%3C%2FmxCell%3E%3CmxCell%20id%3D%2217%22%20value%3D%22%22%20style%3D%22rounded%3D1%3BwhiteSpace%3Dwrap%3Bhtml%3D1%3B%22%20vertex%3D%221%22%20parent%3D%2215%22%3E%3CmxGeometry%20x%3D%2210%22%20y%3D%2210%22%20width%3D%22100%22%20height%3D%2250%22%20as%3D%22geometry%22%2F%3E%3C%2FmxCell%3E%3CmxCell%20id%3D%2218%22%20value%3D%22%22%20style%3D%22whiteSpace%3Dwrap%3Bhtml%3D1%3Baspect%3Dfixed%3BfillColor%3D%23d5e8d4%3BstrokeColor%3D%2382b366%3Bshadow%3D1%3B%22%20vertex%3D%221%22%20parent%3D%221%22%3E%3CmxGeometry%20x%3D%22145%22%20y%3D%22530%22%20width%3D%2280%22%20height%3D%2280%22%20as%3D%22geometry%22%2F%3E%3C%2FmxCell%3E%3CmxCell%20id%3D%2219%22%20value%3D%22%22%20style%3D%22rounded%3D0%3BwhiteSpace%3Dwrap%3Bhtml%3D1%3BstrokeColor%3D%23CCCCCC%3B%22%20vertex%3D%221%22%20parent%3D%221%22%3E%3CmxGeometry%20x%3D%22155%22%20y%3D%22530%22%20width%3D%2260%22%20height%3D%2270%22%20as%3D%22geometry%22%2F%3E%3C%2FmxCell%3E%3CmxCell%20id%3D%2220%22%20style%3D%22edgeStyle%3Dnone%3Brounded%3D0%3BorthogonalLoop%3D1%3BjettySize%3Dauto%3Bhtml%3D1%3BexitX%3D1%3BexitY%3D0.5%3BexitDx%3D0%3BexitDy%3D0%3BentryX%3D0%3BentryY%3D0.75%3BentryDx%3D0%3BentryDy%3D0%3BstartArrow%3Dclassic%3BstartFill%3D1%3B%22%20edge%3D%221%22%20source%3D%2221%22%20target%3D%224%22%20parent%3D%221%22%3E%3CmxGeometry%20relative%3D%221%22%20as%3D%22geometry%22%2F%3E%3C%2FmxCell%3E%3CmxCell%20id%3D%2221%22%20value%3D%22API%26lt%3Bbr%26gt%3BManagers%22%20style%3D%22shape%3Dtrapezoid%3Bperimeter%3DtrapezoidPerimeter%3BwhiteSpace%3Dwrap%3Bhtml%3D1%3BfixedSize%3D1%3BstrokeColor%3D%236c8ebf%3BfillColor%3D%23dae8fc%3Bshadow%3D1%3B%22%20vertex%3D%221%22%20parent%3D%221%22%3E%3CmxGeometry%20x%3D%22125%22%20y%3D%22660%22%20width%3D%22120%22%20height%3D%2260%22%20as%3D%22geometry%22%2F%3E%3C%2FmxCell%3E%3CmxCell%20id%3D%2222%22%20style%3D%22edgeStyle%3Dnone%3Brounded%3D0%3BorthogonalLoop%3D1%3BjettySize%3Dauto%3Bhtml%3D1%3BentryX%3D0%3BentryY%3D1%3BentryDx%3D0%3BentryDy%3D0%3BstartArrow%3Dclassic%3BstartFill%3D1%3B%22%20edge%3D%221%22%20source%3D%2223%22%20target%3D%224%22%20parent%3D%221%22%3E%3CmxGeometry%20relative%3D%221%22%20as%3D%22geometry%22%2F%3E%3C%2FmxCell%3E%3CmxCell%20id%3D%2223%22%20value%3D%22%22%20style%3D%22rounded%3D1%3BwhiteSpace%3Dwrap%3Bhtml%3D1%3BfillColor%3D%23f8cecc%3BstrokeColor%3D%23b85450%3Bshadow%3D1%3B%22%20vertex%3D%221%22%20parent%3D%221%22%3E%3CmxGeometry%20x%3D%22180%22%20y%3D%22770%22%20width%3D%22120%22%20height%3D%2260%22%20as%3D%22geometry%22%2F%3E%3C%2FmxCell%3E%3CmxCell%20id%3D%2224%22%20value%3D%22%22%20style%3D%22rounded%3D1%3BwhiteSpace%3Dwrap%3Bhtml%3D1%3B%22%20vertex%3D%221%22%20parent%3D%221%22%3E%3CmxGeometry%20x%3D%22186%22%20y%3D%22775%22%20width%3D%22108%22%20height%3D%2251%22%20as%3D%22geometry%22%2F%3E%3C%2FmxCell%3E%3CmxCell%20id%3D%2225%22%20value%3D%22Reporting%20tools%26lt%3Bbr%26gt%3Band%20Applications%22%20style%3D%22text%3Bhtml%3D1%3Balign%3Dcenter%3BverticalAlign%3Dmiddle%3Bresizable%3D0%3Bpoints%3D%5B%5D%3Bautosize%3D1%3BstrokeColor%3Dnone%3B%22%20vertex%3D%221%22%20parent%3D%221%22%3E%3CmxGeometry%20x%3D%22190%22%20y%3D%22785%22%20width%3D%22100%22%20height%3D%2230%22%20as%3D%22geometry%22%2F%3E%3C%2FmxCell%3E%3CmxCell%20id%3D%2226%22%20style%3D%22edgeStyle%3Dnone%3Brounded%3D0%3BorthogonalLoop%3D1%3BjettySize%3Dauto%3Bhtml%3D1%3BstartArrow%3Dclassic%3BstartFill%3D1%3BexitX%3D1%3BexitY%3D0.5%3BexitDx%3D0%3BexitDy%3D0%3B%22%20edge%3D%221%22%20source%3D%2218%22%20target%3D%224%22%20parent%3D%221%22%3E%3CmxGeometry%20relative%3D%221%22%20as%3D%22geometry%22%2F%3E%3C%2FmxCell%3E%3CmxCell%20id%3D%2227%22%20value%3D%22Event%26lt%3Bbr%26gt%3BManagers%22%20style%3D%22text%3Bhtml%3D1%3Balign%3Dcenter%3BverticalAlign%3Dmiddle%3Bresizable%3D0%3Bpoints%3D%5B%5D%3B%3Bautosize%3D1%3B%22%20vertex%3D%221%22%20parent%3D%221%22%3E%3CmxGeometry%20x%3D%22151%22%20y%3D%22555%22%20width%3D%2270%22%20height%3D%2230%22%20as%3D%22geometry%22%2F%3E%3C%2FmxCell%3E%3CmxCell%20id%3D%2228%22%20style%3D%22edgeStyle%3DorthogonalEdgeStyle%3Brounded%3D0%3BorthogonalLoop%3D1%3BjettySize%3Dauto%3Bhtml%3D1%3BentryX%3D0.5%3BentryY%3D1%3BentryDx%3D0%3BentryDy%3D0%3BstartArrow%3Dclassic%3BstartFill%3D1%3B%22%20edge%3D%221%22%20source%3D%2229%22%20target%3D%226%22%20parent%3D%221%22%3E%3CmxGeometry%20relative%3D%221%22%20as%3D%22geometry%22%2F%3E%3C%2FmxCell%3E%3CmxCell%20id%3D%2229%22%20value%3D%22%22%20style%3D%22shape%3Dcylinder%3BwhiteSpace%3Dwrap%3Bhtml%3D1%3BboundedLbl%3D1%3BbackgroundOutline%3D1%3BfillColor%3D%23fff2cc%3BstrokeColor%3D%23d6b656%3Bshadow%3D1%3B%22%20vertex%3D%221%22%20parent%3D%221%22%3E%3CmxGeometry%20x%3D%22701.25%22%20y%3D%22600%22%20width%3D%2257.5%22%20height%3D%2240%22%20as%3D%22geometry%22%2F%3E%3C%2FmxCell%3E%3CmxCell%20id%3D%2230%22%20style%3D%22rounded%3D0%3BorthogonalLoop%3D1%3BjettySize%3Dauto%3Bhtml%3D1%3BexitX%3D0.5%3BexitY%3D1%3BexitDx%3D0%3BexitDy%3D0%3BentryX%3D0.25%3BentryY%3D0%3BentryDx%3D0%3BentryDy%3D0%3BstartArrow%3Dclassic%3BstartFill%3D1%3B%22%20edge%3D%221%22%20source%3D%2214%22%20target%3D%224%22%20parent%3D%221%22%3E%3CmxGeometry%20relative%3D%221%22%20as%3D%22geometry%22%2F%3E%3C%2FmxCell%3E%3CmxCell%20id%3D%2231%22%20value%3D%22Data%20Catalogs%22%20style%3D%22rounded%3D1%3BwhiteSpace%3Dwrap%3Bhtml%3D1%3Bshadow%3D1%3Balign%3Dcenter%3BverticalAlign%3Dtop%3B%22%20vertex%3D%221%22%20parent%3D%221%22%3E%3CmxGeometry%20x%3D%22430.5%22%20y%3D%22160%22%20width%3D%22100%22%20height%3D%2265%22%20as%3D%22geometry%22%2F%3E%3C%2FmxCell%3E%3CmxCell%20id%3D%2232%22%20style%3D%22edgeStyle%3Dnone%3Brounded%3D0%3BorthogonalLoop%3D1%3BjettySize%3Dauto%3Bhtml%3D1%3BentryX%3D0.5%3BentryY%3D0%3BentryDx%3D0%3BentryDy%3D0%3BstartArrow%3Dclassic%3BstartFill%3D1%3B%22%20edge%3D%221%22%20source%3D%2233%22%20target%3D%224%22%20parent%3D%221%22%3E%3CmxGeometry%20relative%3D%221%22%20as%3D%22geometry%22%2F%3E%3C%2FmxCell%3E%3CmxCell%20id%3D%2233%22%20value%3D%22%22%20style%3D%22shape%3Dcylinder%3BwhiteSpace%3Dwrap%3Bhtml%3D1%3BboundedLbl%3D1%3BbackgroundOutline%3D1%3BfillColor%3D%23fff2cc%3BstrokeColor%3D%23d6b656%3Bshadow%3D1%3B%22%20vertex%3D%221%22%20parent%3D%221%22%3E%3CmxGeometry%20x%3D%22455.5%22%20y%3D%22187%22%20width%3D%2250%22%20height%3D%2225%22%20as%3D%22geometry%22%2F%3E%3C%2FmxCell%3E%3CmxCell%20id%3D%2234%22%20style%3D%22edgeStyle%3Dnone%3Brounded%3D0%3BorthogonalLoop%3D1%3BjettySize%3Dauto%3Bhtml%3D1%3BentryX%3D0.5%3BentryY%3D1%3BentryDx%3D0%3BentryDy%3D0%3BstartArrow%3Dclassic%3BstartFill%3D1%3B%22%20edge%3D%221%22%20source%3D%2235%22%20target%3D%224%22%20parent%3D%221%22%3E%3CmxGeometry%20relative%3D%221%22%20as%3D%22geometry%22%2F%3E%3C%2FmxCell%3E%3CmxCell%20id%3D%2235%22%20value%3D%22Processing%26lt%3Bbr%26gt%3BEngines%22%20style%3D%22shape%3Dprocess%3BwhiteSpace%3Dwrap%3Bhtml%3D1%3BbackgroundOutline%3D1%3Bshadow%3D1%3Balign%3Dcenter%3B%22%20vertex%3D%221%22%20parent%3D%221%22%3E%3CmxGeometry%20x%3D%22420.5%22%20y%3D%22860%22%20width%3D%22120%22%20height%3D%2260%22%20as%3D%22geometry%22%2F%3E%3C%2FmxCell%3E%3CmxCell%20id%3D%2236%22%20value%3D%22Security%26lt%3Bbr%26gt%3BEnforcement%26lt%3Bbr%26gt%3BTools%22%20style%3D%22rhombus%3BwhiteSpace%3Dwrap%3Bhtml%3D1%3Bshadow%3D1%3Balign%3Dcenter%3BfillColor%3D%23ffe6cc%3BstrokeColor%3D%23d79b00%3B%22%20vertex%3D%221%22%20parent%3D%221%22%3E%3CmxGeometry%20x%3D%22310%22%20y%3D%22830%22%20width%3D%2280%22%20height%3D%2280%22%20as%3D%22geometry%22%2F%3E%3C%2FmxCell%3E%3C%2Froot%3E%3C%2FmxGraphModel%3E&lt;/span&gt;" style="rounded=1;whiteSpace=wrap;html=1;verticalAlign=middle;fillColor=#d5e8d4;strokeColor=#82b366;shadow=1;" parent="F5DwQxN1i41J6cmo2keJ-1" vertex="1">
          <mxGeometry x="355" y="270" width="170" height="122" as="geometry" />
        </mxCell>
        <mxCell id="uFygxR61EF1FGyPuVaYo-6" value="Third Party Technology" style="rounded=1;whiteSpace=wrap;html=1;shadow=0;verticalAlign=middle;fillColor=#f5f5f5;strokeColor=#666666;fontColor=#333333;" parent="F5DwQxN1i41J6cmo2keJ-1" vertex="1">
          <mxGeometry x="190" y="301" width="120" height="60" as="geometry" />
        </mxCell>
        <mxCell id="9pXi87xlg9qnyZ723WzW-4" value="Third Party Technology" style="rounded=1;whiteSpace=wrap;html=1;shadow=0;verticalAlign=middle;fillColor=#f5f5f5;strokeColor=#666666;fontColor=#333333;" parent="F5DwQxN1i41J6cmo2keJ-1" vertex="1">
          <mxGeometry x="190" y="518.5" width="120" height="60" as="geometry" />
        </mxCell>
        <mxCell id="WL16UeEXi4WqyVClXbql-1" style="edgeStyle=orthogonalEdgeStyle;rounded=0;orthogonalLoop=1;jettySize=auto;html=1;entryX=0;entryY=0.5;entryDx=0;entryDy=0;startArrow=classic;startFill=1;" parent="F5DwQxN1i41J6cmo2keJ-1" source="WL16UeEXi4WqyVClXbql-0" edge="1">
          <mxGeometry relative="1" as="geometry">
            <mxPoint x="759" y="564.9999999999998" as="targetPoint" />
          </mxGeometry>
        </mxCell>
        <mxCell id="WL16UeEXi4WqyVClXbql-2" style="edgeStyle=orthogonalEdgeStyle;rounded=0;orthogonalLoop=1;jettySize=auto;html=1;startArrow=classic;startFill=1;entryX=1.004;entryY=0.584;entryDx=0;entryDy=0;entryPerimeter=0;" parent="F5DwQxN1i41J6cmo2keJ-1" source="WL16UeEXi4WqyVClXbql-0" target="xCCksxsWfp4zMxSfkOW--25" edge="1">
          <mxGeometry relative="1" as="geometry">
            <mxPoint x="539" y="564" as="targetPoint" />
            <Array as="points">
              <mxPoint x="554" y="565" />
            </Array>
          </mxGeometry>
        </mxCell>
        <mxCell id="WL16UeEXi4WqyVClXbql-0" value="Cohort&amp;nbsp;&lt;br&gt;Topic" style="ellipse;whiteSpace=wrap;html=1;fillColor=#fff2cc;strokeColor=#d6b656;" parent="F5DwQxN1i41J6cmo2keJ-1" vertex="1">
          <mxGeometry x="579" y="525" width="120" height="80" as="geometry" />
        </mxCell>
        <mxCell id="xCCksxsWfp4zMxSfkOW--0" style="edgeStyle=orthogonalEdgeStyle;rounded=0;orthogonalLoop=1;jettySize=auto;html=1;startArrow=classic;startFill=1;endArrow=classic;endFill=1;strokeColor=default;" parent="F5DwQxN1i41J6cmo2keJ-1" source="xCCksxsWfp4zMxSfkOW--1" target="xCCksxsWfp4zMxSfkOW--19" edge="1">
          <mxGeometry relative="1" as="geometry" />
        </mxCell>
        <mxCell id="xCCksxsWfp4zMxSfkOW--1" value="" style="rounded=1;whiteSpace=wrap;html=1;arcSize=6;strokeColor=#d6b656;fillColor=#fff2cc;" parent="F5DwQxN1i41J6cmo2keJ-1" vertex="1">
          <mxGeometry x="759" y="455" width="180" height="188" as="geometry" />
        </mxCell>
        <mxCell id="xCCksxsWfp4zMxSfkOW--7" style="edgeStyle=orthogonalEdgeStyle;rounded=0;orthogonalLoop=1;jettySize=auto;html=1;entryX=0.5;entryY=0;entryDx=0;entryDy=0;entryPerimeter=0;startArrow=classic;startFill=1;" parent="F5DwQxN1i41J6cmo2keJ-1" target="xCCksxsWfp4zMxSfkOW--9" edge="1">
          <mxGeometry relative="1" as="geometry">
            <mxPoint x="1188.1" y="640" as="sourcePoint" />
          </mxGeometry>
        </mxCell>
        <mxCell id="xCCksxsWfp4zMxSfkOW--9" value="Lineage Graph" style="shape=cylinder3;whiteSpace=wrap;html=1;boundedLbl=1;backgroundOutline=1;size=15;rounded=1;fillColor=#d5e8d4;strokeColor=#82b366;" parent="F5DwQxN1i41J6cmo2keJ-1" vertex="1">
          <mxGeometry x="1129.47" y="690" width="119.06" height="73.44" as="geometry" />
        </mxCell>
        <mxCell id="xCCksxsWfp4zMxSfkOW--10" style="edgeStyle=orthogonalEdgeStyle;rounded=0;orthogonalLoop=1;jettySize=auto;html=1;exitX=0.5;exitY=1;exitDx=0;exitDy=0;startArrow=none;startFill=0;endArrow=classic;endFill=1;strokeColor=default;entryX=-0.01;entryY=0.473;entryDx=0;entryDy=0;entryPerimeter=0;" parent="F5DwQxN1i41J6cmo2keJ-1" source="xCCksxsWfp4zMxSfkOW--11" target="xCCksxsWfp4zMxSfkOW--21" edge="1">
          <mxGeometry relative="1" as="geometry">
            <Array as="points">
              <mxPoint x="844" y="622" />
            </Array>
            <mxPoint x="960" y="622" as="targetPoint" />
          </mxGeometry>
        </mxCell>
        <mxCell id="xCCksxsWfp4zMxSfkOW--11" value="Asset Lineage &lt;br&gt;OMAS" style="rounded=1;whiteSpace=wrap;html=1;" parent="F5DwQxN1i41J6cmo2keJ-1" vertex="1">
          <mxGeometry x="777" y="517" width="140" height="63" as="geometry" />
        </mxCell>
        <mxCell id="xCCksxsWfp4zMxSfkOW--18" value="Metadata Access Server" style="text;html=1;align=center;verticalAlign=middle;resizable=0;points=[];autosize=1;strokeColor=none;fillColor=none;" parent="F5DwQxN1i41J6cmo2keJ-1" vertex="1">
          <mxGeometry x="774" y="460" width="150" height="20" as="geometry" />
        </mxCell>
        <mxCell id="xCCksxsWfp4zMxSfkOW--19" value="" style="shape=cylinder;whiteSpace=wrap;html=1;boundedLbl=1;backgroundOutline=1;fillColor=#fff2cc;strokeColor=#d6b656;shadow=1;" parent="F5DwQxN1i41J6cmo2keJ-1" vertex="1">
          <mxGeometry x="820.25" y="670" width="57.5" height="40" as="geometry" />
        </mxCell>
        <mxCell id="xCCksxsWfp4zMxSfkOW--21" value="" style="rounded=0;whiteSpace=wrap;html=1;fontFamily=Helvetica;fontSize=12;align=center;fillColor=#d5e8d4;strokeColor=#82b366;" parent="F5DwQxN1i41J6cmo2keJ-1" vertex="1">
          <mxGeometry x="971" y="605" width="40" height="35" as="geometry" />
        </mxCell>
        <mxCell id="xCCksxsWfp4zMxSfkOW--22" value="" style="rounded=0;whiteSpace=wrap;html=1;fontFamily=Helvetica;fontSize=12;fontColor=#000000;align=center;sketch=0;strokeColor=none;" parent="F5DwQxN1i41J6cmo2keJ-1" vertex="1">
          <mxGeometry x="977.6666666666666" y="605" width="26.666666666666668" height="28" as="geometry" />
        </mxCell>
        <mxCell id="RsBkJjgl5C9huqkaR5t4-4" style="edgeStyle=orthogonalEdgeStyle;rounded=0;orthogonalLoop=1;jettySize=auto;html=1;exitX=1;exitY=0.5;exitDx=0;exitDy=0;entryX=0;entryY=0.5;entryDx=0;entryDy=0;startArrow=none;startFill=0;endArrow=classic;endFill=1;strokeColor=default;" parent="F5DwQxN1i41J6cmo2keJ-1" source="xCCksxsWfp4zMxSfkOW--21" target="RsBkJjgl5C9huqkaR5t4-2" edge="1">
          <mxGeometry relative="1" as="geometry" />
        </mxCell>
        <mxCell id="xCCksxsWfp4zMxSfkOW--24" style="edgeStyle=orthogonalEdgeStyle;rounded=0;orthogonalLoop=1;jettySize=auto;html=1;startArrow=classic;startFill=1;endArrow=classic;endFill=1;strokeColor=default;" parent="F5DwQxN1i41J6cmo2keJ-1" source="xCCksxsWfp4zMxSfkOW--25" target="xCCksxsWfp4zMxSfkOW--28" edge="1">
          <mxGeometry relative="1" as="geometry" />
        </mxCell>
        <mxCell id="xCCksxsWfp4zMxSfkOW--25" value="" style="rounded=1;whiteSpace=wrap;html=1;arcSize=6;strokeColor=#d6b656;fillColor=#fff2cc;" parent="F5DwQxN1i41J6cmo2keJ-1" vertex="1">
          <mxGeometry x="349" y="455" width="180" height="188" as="geometry" />
        </mxCell>
        <mxCell id="xCCksxsWfp4zMxSfkOW--26" value="Data Engine &lt;br&gt;OMAS" style="rounded=1;whiteSpace=wrap;html=1;" parent="F5DwQxN1i41J6cmo2keJ-1" vertex="1">
          <mxGeometry x="371" y="517" width="140" height="63" as="geometry" />
        </mxCell>
        <mxCell id="xCCksxsWfp4zMxSfkOW--27" value="Metadata Access Server" style="text;html=1;align=center;verticalAlign=middle;resizable=0;points=[];autosize=1;strokeColor=none;fillColor=none;" parent="F5DwQxN1i41J6cmo2keJ-1" vertex="1">
          <mxGeometry x="364" y="460" width="150" height="20" as="geometry" />
        </mxCell>
        <mxCell id="xCCksxsWfp4zMxSfkOW--28" value="" style="shape=cylinder;whiteSpace=wrap;html=1;boundedLbl=1;backgroundOutline=1;fillColor=#fff2cc;strokeColor=#d6b656;shadow=1;" parent="F5DwQxN1i41J6cmo2keJ-1" vertex="1">
          <mxGeometry x="410.25" y="670" width="57.5" height="40" as="geometry" />
        </mxCell>
        <mxCell id="JC3wxQ6JvWT_ER5DoCNz-0" value="Lineage Topic" style="text;html=1;align=center;verticalAlign=middle;resizable=0;points=[];autosize=1;strokeColor=none;fillColor=none;" parent="F5DwQxN1i41J6cmo2keJ-1" vertex="1">
          <mxGeometry x="946" y="650" width="90" height="20" as="geometry" />
        </mxCell>
        <mxCell id="d082YH9mOcOOEgLiygU4-1" value="REST API" style="text;html=1;align=center;verticalAlign=middle;resizable=0;points=[];autosize=1;strokeColor=none;fillColor=none;" parent="F5DwQxN1i41J6cmo2keJ-1" vertex="1">
          <mxGeometry x="966" y="525" width="70" height="20" as="geometry" />
        </mxCell>
        <mxCell id="d082YH9mOcOOEgLiygU4-2" value="REST API" style="text;html=1;align=center;verticalAlign=middle;resizable=0;points=[];autosize=1;strokeColor=none;fillColor=none;" parent="F5DwQxN1i41J6cmo2keJ-1" vertex="1">
          <mxGeometry x="1283.38" y="574" width="70" height="20" as="geometry" />
        </mxCell>
        <mxCell id="9pXi87xlg9qnyZ723WzW-5" style="edgeStyle=orthogonalEdgeStyle;rounded=0;orthogonalLoop=1;jettySize=auto;html=1;entryX=0;entryY=0.5;entryDx=0;entryDy=0;" parent="F5DwQxN1i41J6cmo2keJ-1" source="9pXi87xlg9qnyZ723WzW-4" target="xCCksxsWfp4zMxSfkOW--26" edge="1">
          <mxGeometry relative="1" as="geometry">
            <mxPoint x="325" y="556" as="targetPoint" />
          </mxGeometry>
        </mxCell>
        <mxCell id="BBxjraBZvPe0TAoHVNjk-0" value="Lineage GUI" style="rounded=1;whiteSpace=wrap;html=1;fillColor=#dae8fc;strokeColor=#6c8ebf;" parent="F5DwQxN1i41J6cmo2keJ-1" vertex="1">
          <mxGeometry x="1230" y="270" width="165.88" height="75" as="geometry" />
        </mxCell>
        <mxCell id="RsBkJjgl5C9huqkaR5t4-5" style="edgeStyle=orthogonalEdgeStyle;rounded=0;orthogonalLoop=1;jettySize=auto;html=1;exitX=0.5;exitY=1;exitDx=0;exitDy=0;entryX=1;entryY=0.5;entryDx=0;entryDy=0;startArrow=none;startFill=0;endArrow=classic;endFill=1;strokeColor=default;" parent="F5DwQxN1i41J6cmo2keJ-1" source="BBxjraBZvPe0TAoHVNjk-1" target="RsBkJjgl5C9huqkaR5t4-2" edge="1">
          <mxGeometry relative="1" as="geometry" />
        </mxCell>
        <mxCell id="BBxjraBZvPe0TAoHVNjk-1" value="Open Lineage Services REST Client" style="rounded=1;whiteSpace=wrap;html=1;fillColor=#f5f5f5;strokeColor=#666666;fontColor=#333333;" parent="F5DwQxN1i41J6cmo2keJ-1" vertex="1">
          <mxGeometry x="1271.88" y="330" width="93" height="50" as="geometry" />
        </mxCell>
        <mxCell id="RsBkJjgl5C9huqkaR5t4-3" style="edgeStyle=orthogonalEdgeStyle;rounded=0;orthogonalLoop=1;jettySize=auto;html=1;exitX=0;exitY=0.25;exitDx=0;exitDy=0;entryX=1;entryY=0.5;entryDx=0;entryDy=0;startArrow=none;startFill=0;endArrow=classic;endFill=1;strokeColor=default;" parent="F5DwQxN1i41J6cmo2keJ-1" source="RsBkJjgl5C9huqkaR5t4-2" target="xCCksxsWfp4zMxSfkOW--11" edge="1">
          <mxGeometry relative="1" as="geometry" />
        </mxCell>
        <mxCell id="RsBkJjgl5C9huqkaR5t4-2" value="Open Lineage Services" style="rounded=1;whiteSpace=wrap;html=1;" parent="F5DwQxN1i41J6cmo2keJ-1" vertex="1">
          <mxGeometry x="1121" y="533.5" width="140" height="63" as="geometry" />
        </mxCell>
        <mxCell id="xCCksxsWfp4zMxSfkOW--4" value="Open Lineage Server" style="text;html=1;align=center;verticalAlign=middle;resizable=0;points=[];autosize=1;strokeColor=none;fillColor=none;" parent="F5DwQxN1i41J6cmo2keJ-1" vertex="1">
          <mxGeometry x="1126" y="460" width="130" height="20" as="geometry" />
        </mxCell>
        <mxCell id="O3N7iSccC7w37mxQoLXC-0" value="" style="rounded=1;whiteSpace=wrap;html=1;arcSize=6;strokeColor=#82b366;fillColor=#d5e8d4;" vertex="1" parent="F5DwQxN1i41J6cmo2keJ-1">
          <mxGeometry x="1098" y="454.5" width="180" height="188" as="geometry" />
        </mxCell>
        <mxCell id="O3N7iSccC7w37mxQoLXC-1" style="edgeStyle=orthogonalEdgeStyle;rounded=0;orthogonalLoop=1;jettySize=auto;html=1;entryX=1;entryY=0.5;entryDx=0;entryDy=0;" edge="1" parent="F5DwQxN1i41J6cmo2keJ-1" source="O3N7iSccC7w37mxQoLXC-3" target="O3N7iSccC7w37mxQoLXC-4">
          <mxGeometry relative="1" as="geometry" />
        </mxCell>
        <mxCell id="O3N7iSccC7w37mxQoLXC-2" style="edgeStyle=orthogonalEdgeStyle;rounded=0;orthogonalLoop=1;jettySize=auto;html=1;entryX=0.505;entryY=-0.215;entryDx=0;entryDy=0;entryPerimeter=0;startArrow=none;startFill=0;endArrow=classic;endFill=1;strokeColor=default;" edge="1" parent="F5DwQxN1i41J6cmo2keJ-1" source="O3N7iSccC7w37mxQoLXC-3" target="O3N7iSccC7w37mxQoLXC-22">
          <mxGeometry relative="1" as="geometry" />
        </mxCell>
        <mxCell id="O3N7iSccC7w37mxQoLXC-3" value="Integration Daemon" style="rounded=1;whiteSpace=wrap;html=1;verticalAlign=middle;fillColor=#d5e8d4;strokeColor=#82b366;shadow=1;" vertex="1" parent="F5DwQxN1i41J6cmo2keJ-1">
          <mxGeometry x="355" y="270" width="170" height="122" as="geometry" />
        </mxCell>
        <mxCell id="O3N7iSccC7w37mxQoLXC-4" value="Third Party Technology" style="rounded=1;whiteSpace=wrap;html=1;shadow=0;verticalAlign=middle;fillColor=#f5f5f5;strokeColor=#666666;fontColor=#333333;" vertex="1" parent="F5DwQxN1i41J6cmo2keJ-1">
          <mxGeometry x="190" y="301" width="120" height="60" as="geometry" />
        </mxCell>
        <mxCell id="O3N7iSccC7w37mxQoLXC-5" style="edgeStyle=orthogonalEdgeStyle;rounded=0;orthogonalLoop=1;jettySize=auto;html=1;entryX=0;entryY=0.5;entryDx=0;entryDy=0;startArrow=classic;startFill=1;" edge="1" parent="F5DwQxN1i41J6cmo2keJ-1" source="O3N7iSccC7w37mxQoLXC-7">
          <mxGeometry relative="1" as="geometry">
            <mxPoint x="759" y="564.9999999999998" as="targetPoint" />
          </mxGeometry>
        </mxCell>
        <mxCell id="O3N7iSccC7w37mxQoLXC-6" style="edgeStyle=orthogonalEdgeStyle;rounded=0;orthogonalLoop=1;jettySize=auto;html=1;startArrow=classic;startFill=1;entryX=1.004;entryY=0.584;entryDx=0;entryDy=0;entryPerimeter=0;" edge="1" parent="F5DwQxN1i41J6cmo2keJ-1" source="O3N7iSccC7w37mxQoLXC-7" target="O3N7iSccC7w37mxQoLXC-20">
          <mxGeometry relative="1" as="geometry">
            <mxPoint x="539" y="564" as="targetPoint" />
            <Array as="points">
              <mxPoint x="554" y="565" />
            </Array>
          </mxGeometry>
        </mxCell>
        <mxCell id="O3N7iSccC7w37mxQoLXC-7" value="Cohort&amp;nbsp;&lt;br&gt;Topic" style="ellipse;whiteSpace=wrap;html=1;fillColor=#fff2cc;strokeColor=#d6b656;" vertex="1" parent="F5DwQxN1i41J6cmo2keJ-1">
          <mxGeometry x="579" y="525" width="120" height="80" as="geometry" />
        </mxCell>
        <mxCell id="O3N7iSccC7w37mxQoLXC-8" style="edgeStyle=orthogonalEdgeStyle;rounded=0;orthogonalLoop=1;jettySize=auto;html=1;startArrow=classic;startFill=1;endArrow=classic;endFill=1;strokeColor=default;" edge="1" parent="F5DwQxN1i41J6cmo2keJ-1" source="O3N7iSccC7w37mxQoLXC-9" target="O3N7iSccC7w37mxQoLXC-15">
          <mxGeometry relative="1" as="geometry" />
        </mxCell>
        <mxCell id="O3N7iSccC7w37mxQoLXC-9" value="" style="rounded=1;whiteSpace=wrap;html=1;arcSize=6;strokeColor=#d6b656;fillColor=#fff2cc;" vertex="1" parent="F5DwQxN1i41J6cmo2keJ-1">
          <mxGeometry x="759" y="455" width="180" height="188" as="geometry" />
        </mxCell>
        <mxCell id="O3N7iSccC7w37mxQoLXC-10" style="edgeStyle=orthogonalEdgeStyle;rounded=0;orthogonalLoop=1;jettySize=auto;html=1;entryX=0.5;entryY=0;entryDx=0;entryDy=0;entryPerimeter=0;startArrow=classic;startFill=1;" edge="1" parent="F5DwQxN1i41J6cmo2keJ-1" target="O3N7iSccC7w37mxQoLXC-11">
          <mxGeometry relative="1" as="geometry">
            <mxPoint x="1188.1" y="640" as="sourcePoint" />
          </mxGeometry>
        </mxCell>
        <mxCell id="O3N7iSccC7w37mxQoLXC-11" value="Lineage Graph" style="shape=cylinder3;whiteSpace=wrap;html=1;boundedLbl=1;backgroundOutline=1;size=15;rounded=1;fillColor=#d5e8d4;strokeColor=#82b366;" vertex="1" parent="F5DwQxN1i41J6cmo2keJ-1">
          <mxGeometry x="1129.47" y="690" width="119.06" height="73.44" as="geometry" />
        </mxCell>
        <mxCell id="O3N7iSccC7w37mxQoLXC-12" style="edgeStyle=orthogonalEdgeStyle;rounded=0;orthogonalLoop=1;jettySize=auto;html=1;exitX=0.5;exitY=1;exitDx=0;exitDy=0;startArrow=none;startFill=0;endArrow=classic;endFill=1;strokeColor=default;entryX=-0.01;entryY=0.473;entryDx=0;entryDy=0;entryPerimeter=0;" edge="1" parent="F5DwQxN1i41J6cmo2keJ-1" source="O3N7iSccC7w37mxQoLXC-13" target="O3N7iSccC7w37mxQoLXC-16">
          <mxGeometry relative="1" as="geometry">
            <Array as="points">
              <mxPoint x="844" y="622" />
            </Array>
            <mxPoint x="960" y="622" as="targetPoint" />
          </mxGeometry>
        </mxCell>
        <mxCell id="O3N7iSccC7w37mxQoLXC-13" value="Asset Lineage &lt;br&gt;OMAS" style="rounded=1;whiteSpace=wrap;html=1;" vertex="1" parent="F5DwQxN1i41J6cmo2keJ-1">
          <mxGeometry x="777" y="517" width="140" height="63" as="geometry" />
        </mxCell>
        <mxCell id="O3N7iSccC7w37mxQoLXC-14" value="Metadata Access Server" style="text;html=1;align=center;verticalAlign=middle;resizable=0;points=[];autosize=1;strokeColor=none;fillColor=none;" vertex="1" parent="F5DwQxN1i41J6cmo2keJ-1">
          <mxGeometry x="774" y="460" width="150" height="20" as="geometry" />
        </mxCell>
        <mxCell id="O3N7iSccC7w37mxQoLXC-15" value="" style="shape=cylinder;whiteSpace=wrap;html=1;boundedLbl=1;backgroundOutline=1;fillColor=#fff2cc;strokeColor=#d6b656;shadow=1;" vertex="1" parent="F5DwQxN1i41J6cmo2keJ-1">
          <mxGeometry x="820.25" y="670" width="57.5" height="40" as="geometry" />
        </mxCell>
        <mxCell id="O3N7iSccC7w37mxQoLXC-16" value="" style="rounded=0;whiteSpace=wrap;html=1;fontFamily=Helvetica;fontSize=12;align=center;fillColor=#d5e8d4;strokeColor=#82b366;" vertex="1" parent="F5DwQxN1i41J6cmo2keJ-1">
          <mxGeometry x="971" y="605" width="40" height="35" as="geometry" />
        </mxCell>
        <mxCell id="O3N7iSccC7w37mxQoLXC-17" value="" style="rounded=0;whiteSpace=wrap;html=1;fontFamily=Helvetica;fontSize=12;fontColor=#000000;align=center;sketch=0;strokeColor=none;" vertex="1" parent="F5DwQxN1i41J6cmo2keJ-1">
          <mxGeometry x="977.6666666666666" y="605" width="26.666666666666668" height="28" as="geometry" />
        </mxCell>
        <mxCell id="O3N7iSccC7w37mxQoLXC-18" style="edgeStyle=orthogonalEdgeStyle;rounded=0;orthogonalLoop=1;jettySize=auto;html=1;exitX=1;exitY=0.5;exitDx=0;exitDy=0;entryX=0;entryY=0.5;entryDx=0;entryDy=0;startArrow=none;startFill=0;endArrow=classic;endFill=1;strokeColor=default;" edge="1" parent="F5DwQxN1i41J6cmo2keJ-1" source="O3N7iSccC7w37mxQoLXC-16" target="O3N7iSccC7w37mxQoLXC-31">
          <mxGeometry relative="1" as="geometry" />
        </mxCell>
        <mxCell id="O3N7iSccC7w37mxQoLXC-19" style="edgeStyle=orthogonalEdgeStyle;rounded=0;orthogonalLoop=1;jettySize=auto;html=1;startArrow=classic;startFill=1;endArrow=classic;endFill=1;strokeColor=default;" edge="1" parent="F5DwQxN1i41J6cmo2keJ-1" source="O3N7iSccC7w37mxQoLXC-20" target="O3N7iSccC7w37mxQoLXC-23">
          <mxGeometry relative="1" as="geometry" />
        </mxCell>
        <mxCell id="O3N7iSccC7w37mxQoLXC-20" value="" style="rounded=1;whiteSpace=wrap;html=1;arcSize=6;strokeColor=#d6b656;fillColor=#fff2cc;" vertex="1" parent="F5DwQxN1i41J6cmo2keJ-1">
          <mxGeometry x="349" y="455" width="180" height="188" as="geometry" />
        </mxCell>
        <mxCell id="O3N7iSccC7w37mxQoLXC-21" value="Partner OMAS" style="rounded=1;whiteSpace=wrap;html=1;" vertex="1" parent="F5DwQxN1i41J6cmo2keJ-1">
          <mxGeometry x="371" y="517" width="140" height="63" as="geometry" />
        </mxCell>
        <mxCell id="O3N7iSccC7w37mxQoLXC-22" value="Metadata Access Server" style="text;html=1;align=center;verticalAlign=middle;resizable=0;points=[];autosize=1;strokeColor=none;fillColor=none;" vertex="1" parent="F5DwQxN1i41J6cmo2keJ-1">
          <mxGeometry x="364" y="460" width="150" height="20" as="geometry" />
        </mxCell>
        <mxCell id="O3N7iSccC7w37mxQoLXC-23" value="" style="shape=cylinder;whiteSpace=wrap;html=1;boundedLbl=1;backgroundOutline=1;fillColor=#fff2cc;strokeColor=#d6b656;shadow=1;" vertex="1" parent="F5DwQxN1i41J6cmo2keJ-1">
          <mxGeometry x="410.25" y="670" width="57.5" height="40" as="geometry" />
        </mxCell>
        <mxCell id="O3N7iSccC7w37mxQoLXC-24" value="Lineage Topic" style="text;html=1;align=center;verticalAlign=middle;resizable=0;points=[];autosize=1;strokeColor=none;fillColor=none;" vertex="1" parent="F5DwQxN1i41J6cmo2keJ-1">
          <mxGeometry x="946" y="650" width="90" height="20" as="geometry" />
        </mxCell>
        <mxCell id="O3N7iSccC7w37mxQoLXC-25" value="REST API" style="text;html=1;align=center;verticalAlign=middle;resizable=0;points=[];autosize=1;strokeColor=none;fillColor=none;" vertex="1" parent="F5DwQxN1i41J6cmo2keJ-1">
          <mxGeometry x="966" y="525" width="70" height="20" as="geometry" />
        </mxCell>
        <mxCell id="O3N7iSccC7w37mxQoLXC-26" value="REST API" style="text;html=1;align=center;verticalAlign=middle;resizable=0;points=[];autosize=1;strokeColor=none;fillColor=none;" vertex="1" parent="F5DwQxN1i41J6cmo2keJ-1">
          <mxGeometry x="1283.38" y="574" width="70" height="20" as="geometry" />
        </mxCell>
        <mxCell id="O3N7iSccC7w37mxQoLXC-27" value="Lineage GUI" style="rounded=1;whiteSpace=wrap;html=1;fillColor=#dae8fc;strokeColor=#6c8ebf;" vertex="1" parent="F5DwQxN1i41J6cmo2keJ-1">
          <mxGeometry x="1230" y="270" width="165.88" height="75" as="geometry" />
        </mxCell>
        <mxCell id="O3N7iSccC7w37mxQoLXC-28" style="edgeStyle=orthogonalEdgeStyle;rounded=0;orthogonalLoop=1;jettySize=auto;html=1;exitX=0.5;exitY=1;exitDx=0;exitDy=0;entryX=1;entryY=0.5;entryDx=0;entryDy=0;startArrow=none;startFill=0;endArrow=classic;endFill=1;strokeColor=default;" edge="1" parent="F5DwQxN1i41J6cmo2keJ-1" source="O3N7iSccC7w37mxQoLXC-29" target="O3N7iSccC7w37mxQoLXC-31">
          <mxGeometry relative="1" as="geometry" />
        </mxCell>
        <mxCell id="O3N7iSccC7w37mxQoLXC-29" value="Open Lineage Services REST Client" style="rounded=1;whiteSpace=wrap;html=1;fillColor=#f5f5f5;strokeColor=#666666;fontColor=#333333;" vertex="1" parent="F5DwQxN1i41J6cmo2keJ-1">
          <mxGeometry x="1271.88" y="330" width="93" height="50" as="geometry" />
        </mxCell>
        <mxCell id="O3N7iSccC7w37mxQoLXC-30" style="edgeStyle=orthogonalEdgeStyle;rounded=0;orthogonalLoop=1;jettySize=auto;html=1;exitX=0;exitY=0.25;exitDx=0;exitDy=0;entryX=1;entryY=0.5;entryDx=0;entryDy=0;startArrow=none;startFill=0;endArrow=classic;endFill=1;strokeColor=default;" edge="1" parent="F5DwQxN1i41J6cmo2keJ-1" source="O3N7iSccC7w37mxQoLXC-31" target="O3N7iSccC7w37mxQoLXC-13">
          <mxGeometry relative="1" as="geometry" />
        </mxCell>
        <mxCell id="O3N7iSccC7w37mxQoLXC-31" value="Lineage Warehouse Services" style="rounded=1;whiteSpace=wrap;html=1;" vertex="1" parent="F5DwQxN1i41J6cmo2keJ-1">
          <mxGeometry x="1121" y="533.5" width="140" height="63" as="geometry" />
        </mxCell>
        <mxCell id="O3N7iSccC7w37mxQoLXC-32" value="Lineage Warehouse" style="text;html=1;align=center;verticalAlign=middle;resizable=0;points=[];autosize=1;strokeColor=none;fillColor=none;" vertex="1" parent="F5DwQxN1i41J6cmo2keJ-1">
          <mxGeometry x="1126" y="455" width="130" height="30" as="geometry" />
        </mxCell>
      </root>
    </mxGraphModel>
  </diagram>
  <diagram id="5vlLN2a6ORj9A4j08NC1" name="lineage-warehouse">
    <mxGraphModel dx="2669" dy="1030" grid="1" gridSize="10" guides="1" tooltips="1" connect="1" arrows="1" fold="1" page="1" pageScale="1" pageWidth="1169" pageHeight="827" math="0" shadow="0">
      <root>
        <mxCell id="M8Fs5CVBrgH-xOlK00VR-0" />
        <mxCell id="M8Fs5CVBrgH-xOlK00VR-1" parent="M8Fs5CVBrgH-xOlK00VR-0" />
        <mxCell id="ItFDzF602TF0N_0dcUrR-0" style="edgeStyle=orthogonalEdgeStyle;rounded=0;orthogonalLoop=1;jettySize=auto;html=1;startArrow=classic;startFill=1;endArrow=classic;endFill=1;strokeColor=default;" parent="M8Fs5CVBrgH-xOlK00VR-1" source="ItFDzF602TF0N_0dcUrR-1" target="ItFDzF602TF0N_0dcUrR-19" edge="1">
          <mxGeometry relative="1" as="geometry" />
        </mxCell>
        <mxCell id="ItFDzF602TF0N_0dcUrR-1" value="" style="rounded=1;whiteSpace=wrap;html=1;arcSize=6;strokeColor=#d6b656;fillColor=#fff2cc;" parent="M8Fs5CVBrgH-xOlK00VR-1" vertex="1">
          <mxGeometry x="-930.78" y="267" width="180" height="188" as="geometry" />
        </mxCell>
        <mxCell id="ItFDzF602TF0N_0dcUrR-2" value="" style="rounded=1;whiteSpace=wrap;html=1;arcSize=6;strokeColor=#82b366;fillColor=#d5e8d4;" parent="M8Fs5CVBrgH-xOlK00VR-1" vertex="1">
          <mxGeometry x="-650.78" y="172" width="280" height="390" as="geometry" />
        </mxCell>
        <mxCell id="ItFDzF602TF0N_0dcUrR-3" value="" style="rounded=0;whiteSpace=wrap;html=1;" parent="M8Fs5CVBrgH-xOlK00VR-1" vertex="1">
          <mxGeometry x="-604.9100000000001" y="232" width="188.25" height="300" as="geometry" />
        </mxCell>
        <mxCell id="ItFDzF602TF0N_0dcUrR-4" value="&lt;br&gt;Lineage Warehouse" style="text;html=1;align=center;verticalAlign=middle;resizable=0;points=[];autosize=1;strokeColor=none;fillColor=none;" parent="M8Fs5CVBrgH-xOlK00VR-1" vertex="1">
          <mxGeometry x="-571.6600000000001" y="167" width="130" height="40" as="geometry" />
        </mxCell>
        <mxCell id="ItFDzF602TF0N_0dcUrR-5" style="edgeStyle=orthogonalEdgeStyle;rounded=0;orthogonalLoop=1;jettySize=auto;html=1;startArrow=none;startFill=0;endArrow=classic;endFill=1;entryX=1;entryY=0.5;entryDx=0;entryDy=0;exitX=0;exitY=0.5;exitDx=0;exitDy=0;" parent="M8Fs5CVBrgH-xOlK00VR-1" source="ItFDzF602TF0N_0dcUrR-6" target="ItFDzF602TF0N_0dcUrR-11" edge="1">
          <mxGeometry relative="1" as="geometry">
            <mxPoint x="-799.78" y="367" as="targetPoint" />
            <Array as="points">
              <mxPoint x="-632.78" y="361" />
              <mxPoint x="-713.78" y="361" />
            </Array>
          </mxGeometry>
        </mxCell>
        <mxCell id="ItFDzF602TF0N_0dcUrR-6" value="Asset Lineage Client" style="rounded=1;whiteSpace=wrap;html=1;fillColor=#e1d5e7;strokeColor=#9673a6;" parent="M8Fs5CVBrgH-xOlK00VR-1" vertex="1">
          <mxGeometry x="-586.6600000000001" y="342" width="75.88" height="50" as="geometry" />
        </mxCell>
        <mxCell id="ItFDzF602TF0N_0dcUrR-7" style="edgeStyle=orthogonalEdgeStyle;rounded=0;orthogonalLoop=1;jettySize=auto;html=1;entryX=0.5;entryY=0;entryDx=0;entryDy=0;entryPerimeter=0;startArrow=classic;startFill=1;" parent="M8Fs5CVBrgH-xOlK00VR-1" source="ItFDzF602TF0N_0dcUrR-8" target="ItFDzF602TF0N_0dcUrR-9" edge="1">
          <mxGeometry relative="1" as="geometry" />
        </mxCell>
        <mxCell id="ItFDzF602TF0N_0dcUrR-8" value="Lineage Graph Connector" style="rounded=1;whiteSpace=wrap;html=1;fillColor=#e1d5e7;strokeColor=#9673a6;" parent="M8Fs5CVBrgH-xOlK00VR-1" vertex="1">
          <mxGeometry x="-586.6600000000001" y="462" width="150" height="50" as="geometry" />
        </mxCell>
        <mxCell id="ItFDzF602TF0N_0dcUrR-9" value="Lineage Graph" style="shape=cylinder3;whiteSpace=wrap;html=1;boundedLbl=1;backgroundOutline=1;size=15;rounded=1;fillColor=#d5e8d4;strokeColor=#82b366;" parent="M8Fs5CVBrgH-xOlK00VR-1" vertex="1">
          <mxGeometry x="-592.8399999999999" y="592" width="162.12" height="100" as="geometry" />
        </mxCell>
        <mxCell id="ItFDzF602TF0N_0dcUrR-10" style="edgeStyle=orthogonalEdgeStyle;rounded=0;orthogonalLoop=1;jettySize=auto;html=1;exitX=0.5;exitY=1;exitDx=0;exitDy=0;startArrow=none;startFill=0;endArrow=classic;endFill=1;strokeColor=default;entryX=-0.01;entryY=0.473;entryDx=0;entryDy=0;entryPerimeter=0;" parent="M8Fs5CVBrgH-xOlK00VR-1" source="ItFDzF602TF0N_0dcUrR-11" target="ItFDzF602TF0N_0dcUrR-21" edge="1">
          <mxGeometry relative="1" as="geometry">
            <Array as="points">
              <mxPoint x="-845.78" y="434" />
            </Array>
            <mxPoint x="-729.78" y="434" as="targetPoint" />
          </mxGeometry>
        </mxCell>
        <mxCell id="ItFDzF602TF0N_0dcUrR-11" value="Asset Lineage &lt;br&gt;OMAS" style="rounded=1;whiteSpace=wrap;html=1;" parent="M8Fs5CVBrgH-xOlK00VR-1" vertex="1">
          <mxGeometry x="-915.78" y="329" width="140" height="63" as="geometry" />
        </mxCell>
        <mxCell id="ItFDzF602TF0N_0dcUrR-12" value="&lt;span&gt;Lineage Warehouse Services&lt;/span&gt;" style="text;html=1;align=center;verticalAlign=middle;resizable=0;points=[];autosize=1;strokeColor=none;fillColor=none;" parent="M8Fs5CVBrgH-xOlK00VR-1" vertex="1">
          <mxGeometry x="-600.78" y="229" width="180" height="30" as="geometry" />
        </mxCell>
        <mxCell id="ItFDzF602TF0N_0dcUrR-13" value="Lineage REST API" style="rounded=1;whiteSpace=wrap;html=1;fillColor=#e1d5e7;strokeColor=#9673a6;" parent="M8Fs5CVBrgH-xOlK00VR-1" vertex="1">
          <mxGeometry x="-585.78" y="282" width="150" height="50" as="geometry" />
        </mxCell>
        <mxCell id="ItFDzF602TF0N_0dcUrR-14" value="Lineage GUI" style="rounded=1;whiteSpace=wrap;html=1;fillColor=#dae8fc;strokeColor=#6c8ebf;" parent="M8Fs5CVBrgH-xOlK00VR-1" vertex="1">
          <mxGeometry x="-310.0000000000001" y="146" width="165.88" height="75" as="geometry" />
        </mxCell>
        <mxCell id="ItFDzF602TF0N_0dcUrR-15" style="edgeStyle=orthogonalEdgeStyle;rounded=0;orthogonalLoop=1;jettySize=auto;html=1;exitX=0.5;exitY=1;exitDx=0;exitDy=0;entryX=1;entryY=0.5;entryDx=0;entryDy=0;startArrow=none;startFill=0;endArrow=classic;endFill=1;" parent="M8Fs5CVBrgH-xOlK00VR-1" source="ItFDzF602TF0N_0dcUrR-16" target="ItFDzF602TF0N_0dcUrR-13" edge="1">
          <mxGeometry relative="1" as="geometry">
            <Array as="points">
              <mxPoint x="-227" y="307" />
            </Array>
          </mxGeometry>
        </mxCell>
        <mxCell id="ItFDzF602TF0N_0dcUrR-16" value="Open Lineage Services REST Client" style="rounded=1;whiteSpace=wrap;html=1;fillColor=#f5f5f5;strokeColor=#666666;fontColor=#333333;" parent="M8Fs5CVBrgH-xOlK00VR-1" vertex="1">
          <mxGeometry x="-273.56000000000006" y="204" width="93" height="50" as="geometry" />
        </mxCell>
        <mxCell id="ItFDzF602TF0N_0dcUrR-17" value="Lineage Event Listener" style="rounded=1;whiteSpace=wrap;html=1;fillColor=#e1d5e7;strokeColor=#9673a6;" parent="M8Fs5CVBrgH-xOlK00VR-1" vertex="1">
          <mxGeometry x="-585.78" y="402" width="150" height="50" as="geometry" />
        </mxCell>
        <mxCell id="ItFDzF602TF0N_0dcUrR-18" value="Metadata Access Server" style="text;html=1;align=center;verticalAlign=middle;resizable=0;points=[];autosize=1;strokeColor=none;fillColor=none;" parent="M8Fs5CVBrgH-xOlK00VR-1" vertex="1">
          <mxGeometry x="-915.78" y="272" width="150" height="20" as="geometry" />
        </mxCell>
        <mxCell id="ItFDzF602TF0N_0dcUrR-19" value="" style="shape=cylinder;whiteSpace=wrap;html=1;boundedLbl=1;backgroundOutline=1;fillColor=#fff2cc;strokeColor=#d6b656;shadow=1;" parent="M8Fs5CVBrgH-xOlK00VR-1" vertex="1">
          <mxGeometry x="-869.53" y="482" width="57.5" height="40" as="geometry" />
        </mxCell>
        <mxCell id="ItFDzF602TF0N_0dcUrR-20" style="edgeStyle=orthogonalEdgeStyle;rounded=0;orthogonalLoop=1;jettySize=auto;html=1;startArrow=none;startFill=0;endArrow=classic;endFill=1;strokeColor=default;entryX=-0.001;entryY=0.66;entryDx=0;entryDy=0;entryPerimeter=0;" parent="M8Fs5CVBrgH-xOlK00VR-1" source="ItFDzF602TF0N_0dcUrR-21" target="ItFDzF602TF0N_0dcUrR-17" edge="1">
          <mxGeometry relative="1" as="geometry">
            <mxPoint x="-590" y="435" as="targetPoint" />
            <Array as="points">
              <mxPoint x="-627" y="435" />
            </Array>
          </mxGeometry>
        </mxCell>
        <mxCell id="ItFDzF602TF0N_0dcUrR-21" value="" style="rounded=0;whiteSpace=wrap;html=1;fontFamily=Helvetica;fontSize=12;align=center;fillColor=#d5e8d4;strokeColor=#82b366;" parent="M8Fs5CVBrgH-xOlK00VR-1" vertex="1">
          <mxGeometry x="-718.78" y="417" width="40" height="35" as="geometry" />
        </mxCell>
        <mxCell id="ItFDzF602TF0N_0dcUrR-22" value="" style="rounded=0;whiteSpace=wrap;html=1;fontFamily=Helvetica;fontSize=12;fontColor=#000000;align=center;sketch=0;strokeColor=none;" parent="M8Fs5CVBrgH-xOlK00VR-1" vertex="1">
          <mxGeometry x="-712.1133333333333" y="417" width="26.666666666666668" height="28" as="geometry" />
        </mxCell>
        <mxCell id="ItFDzF602TF0N_0dcUrR-23" value="Lineage Topic" style="text;html=1;align=center;verticalAlign=middle;resizable=0;points=[];autosize=1;strokeColor=none;fillColor=none;" parent="M8Fs5CVBrgH-xOlK00VR-1" vertex="1">
          <mxGeometry x="-743.78" y="462" width="90" height="20" as="geometry" />
        </mxCell>
        <mxCell id="ItFDzF602TF0N_0dcUrR-24" value="REST API" style="text;html=1;align=center;verticalAlign=middle;resizable=0;points=[];autosize=1;strokeColor=none;fillColor=none;" parent="M8Fs5CVBrgH-xOlK00VR-1" vertex="1">
          <mxGeometry x="-723.78" y="337" width="70" height="20" as="geometry" />
        </mxCell>
        <mxCell id="ItFDzF602TF0N_0dcUrR-25" value="REST API" style="text;html=1;align=center;verticalAlign=middle;resizable=0;points=[];autosize=1;strokeColor=none;fillColor=none;" parent="M8Fs5CVBrgH-xOlK00VR-1" vertex="1">
          <mxGeometry x="-349.78000000000003" y="282" width="70" height="20" as="geometry" />
        </mxCell>
        <mxCell id="ItFDzF602TF0N_0dcUrR-26" value="1" style="ellipse;whiteSpace=wrap;html=1;aspect=fixed;rounded=1;sketch=0;fillColor=#a20025;strokeColor=#6F0000;fontColor=#ffffff;" parent="M8Fs5CVBrgH-xOlK00VR-1" vertex="1">
          <mxGeometry x="-980.78" y="312" width="30" height="30" as="geometry" />
        </mxCell>
        <mxCell id="ItFDzF602TF0N_0dcUrR-27" style="edgeStyle=orthogonalEdgeStyle;rounded=0;orthogonalLoop=1;jettySize=auto;html=1;entryX=0;entryY=0.5;entryDx=0;entryDy=0;startArrow=none;startFill=0;" parent="M8Fs5CVBrgH-xOlK00VR-1" edge="1">
          <mxGeometry relative="1" as="geometry">
            <mxPoint x="-931.78" y="360.5" as="targetPoint" />
            <mxPoint x="-991.78" y="360.5" as="sourcePoint" />
          </mxGeometry>
        </mxCell>
        <mxCell id="ItFDzF602TF0N_0dcUrR-28" value="2" style="ellipse;whiteSpace=wrap;html=1;aspect=fixed;rounded=1;sketch=0;fillColor=#a20025;strokeColor=#6F0000;fontColor=#ffffff;" parent="M8Fs5CVBrgH-xOlK00VR-1" vertex="1">
          <mxGeometry x="-880.78" y="402" width="30" height="30" as="geometry" />
        </mxCell>
        <mxCell id="ItFDzF602TF0N_0dcUrR-29" value="4" style="ellipse;whiteSpace=wrap;html=1;aspect=fixed;rounded=1;sketch=0;fillColor=#a20025;strokeColor=#6F0000;fontColor=#ffffff;" parent="M8Fs5CVBrgH-xOlK00VR-1" vertex="1">
          <mxGeometry x="-430.7200000000001" y="352" width="30" height="30" as="geometry" />
        </mxCell>
        <mxCell id="ItFDzF602TF0N_0dcUrR-30" value="3" style="ellipse;whiteSpace=wrap;html=1;aspect=fixed;rounded=1;sketch=0;fillColor=#a20025;strokeColor=#6F0000;fontColor=#ffffff;" parent="M8Fs5CVBrgH-xOlK00VR-1" vertex="1">
          <mxGeometry x="-523.78" y="440" width="30" height="30" as="geometry" />
        </mxCell>
        <mxCell id="ItFDzF602TF0N_0dcUrR-31" value="5" style="ellipse;whiteSpace=wrap;html=1;aspect=fixed;rounded=1;sketch=0;fillColor=#a20025;strokeColor=#6F0000;fontColor=#ffffff;" parent="M8Fs5CVBrgH-xOlK00VR-1" vertex="1">
          <mxGeometry x="-220" y="262" width="30" height="30" as="geometry" />
        </mxCell>
        <mxCell id="ItFDzF602TF0N_0dcUrR-32" value="Lineage&lt;br&gt;Jobs" style="rounded=1;whiteSpace=wrap;html=1;fillColor=#e1d5e7;strokeColor=#9673a6;" parent="M8Fs5CVBrgH-xOlK00VR-1" vertex="1">
          <mxGeometry x="-505.53" y="342" width="69.75" height="50" as="geometry" />
        </mxCell>
        <mxCell id="ItFDzF602TF0N_0dcUrR-34" value="&lt;font style=&quot;font-size: 13px&quot;&gt;Cohort Metadata&lt;/font&gt;" style="text;html=1;align=center;verticalAlign=middle;resizable=0;points=[];autosize=1;strokeColor=none;fillColor=none;rotation=-90;" parent="M8Fs5CVBrgH-xOlK00VR-1" vertex="1">
          <mxGeometry x="-1056" y="357" width="110" height="20" as="geometry" />
        </mxCell>
        <mxCell id="IVHLTlvMfBbbtsSTSs99-0" value="text" parent="M8Fs5CVBrgH-xOlK00VR-0" />
      </root>
    </mxGraphModel>
  </diagram>
  <diagram id="a58-c7RXE4T38aJssx4e" name="horizontal-view">
    <mxGraphModel dx="2515" dy="816" grid="1" gridSize="10" guides="1" tooltips="1" connect="1" arrows="1" fold="1" page="1" pageScale="1" pageWidth="1169" pageHeight="827" math="0" shadow="0">
      <root>
        <mxCell id="7mjDbSbkMEDv-3-ZkeOp-0" />
        <mxCell id="7mjDbSbkMEDv-3-ZkeOp-1" parent="7mjDbSbkMEDv-3-ZkeOp-0" />
        <mxCell id="cJ8bBeuv6TMHrRIrgCWG-46" style="edgeStyle=orthogonalEdgeStyle;rounded=0;orthogonalLoop=1;jettySize=auto;html=1;entryX=0.5;entryY=0;entryDx=0;entryDy=0;startArrow=none;startFill=0;endArrow=none;endFill=0;strokeColor=default;" parent="7mjDbSbkMEDv-3-ZkeOp-1" source="7mjDbSbkMEDv-3-ZkeOp-5" target="cJ8bBeuv6TMHrRIrgCWG-42" edge="1">
          <mxGeometry relative="1" as="geometry" />
        </mxCell>
        <mxCell id="cJ8bBeuv6TMHrRIrgCWG-47" style="edgeStyle=orthogonalEdgeStyle;rounded=0;orthogonalLoop=1;jettySize=auto;html=1;entryX=0.5;entryY=0;entryDx=0;entryDy=0;startArrow=none;startFill=0;endArrow=none;endFill=0;strokeColor=default;" parent="7mjDbSbkMEDv-3-ZkeOp-1" source="7mjDbSbkMEDv-3-ZkeOp-5" target="cJ8bBeuv6TMHrRIrgCWG-43" edge="1">
          <mxGeometry relative="1" as="geometry" />
        </mxCell>
        <mxCell id="7mjDbSbkMEDv-3-ZkeOp-5" value="Process" style="rounded=1;whiteSpace=wrap;html=1;fillColor=#b0e3e6;strokeColor=#0e8088;shadow=1;" parent="7mjDbSbkMEDv-3-ZkeOp-1" vertex="1">
          <mxGeometry x="-60" y="400" width="120" height="60" as="geometry" />
        </mxCell>
        <mxCell id="myLyxPm9p12b3K1-r2xD-5" style="edgeStyle=orthogonalEdgeStyle;rounded=0;orthogonalLoop=1;jettySize=auto;html=1;entryX=0;entryY=0.5;entryDx=0;entryDy=0;startArrow=none;startFill=0;endArrow=classic;endFill=1;strokeColor=#67AB9F;strokeWidth=2;" parent="7mjDbSbkMEDv-3-ZkeOp-1" source="cJ8bBeuv6TMHrRIrgCWG-30" target="myLyxPm9p12b3K1-r2xD-0" edge="1">
          <mxGeometry relative="1" as="geometry" />
        </mxCell>
        <mxCell id="cJ8bBeuv6TMHrRIrgCWG-30" value="Param 1" style="rounded=0;whiteSpace=wrap;html=1;fillColor=#d0cee2;strokeColor=#56517e;" parent="7mjDbSbkMEDv-3-ZkeOp-1" vertex="1">
          <mxGeometry x="-310" y="580" width="60" height="30" as="geometry" />
        </mxCell>
        <mxCell id="cJ8bBeuv6TMHrRIrgCWG-31" value="Param 2" style="rounded=0;whiteSpace=wrap;html=1;fillColor=#d0cee2;strokeColor=#56517e;" parent="7mjDbSbkMEDv-3-ZkeOp-1" vertex="1">
          <mxGeometry x="-260" y="620" width="60" height="30" as="geometry" />
        </mxCell>
        <mxCell id="cJ8bBeuv6TMHrRIrgCWG-32" style="edgeStyle=orthogonalEdgeStyle;rounded=0;orthogonalLoop=1;jettySize=auto;html=1;exitX=0.5;exitY=1;exitDx=0;exitDy=0;entryX=0.5;entryY=0;entryDx=0;entryDy=0;startArrow=none;startFill=0;endArrow=none;endFill=0;" parent="7mjDbSbkMEDv-3-ZkeOp-1" source="cJ8bBeuv6TMHrRIrgCWG-33" target="cJ8bBeuv6TMHrRIrgCWG-36" edge="1">
          <mxGeometry relative="1" as="geometry" />
        </mxCell>
        <mxCell id="cJ8bBeuv6TMHrRIrgCWG-33" value="CSV&lt;br&gt;DataStore" style="rounded=1;whiteSpace=wrap;html=1;fillColor=#b0e3e6;strokeColor=#0e8088;" parent="7mjDbSbkMEDv-3-ZkeOp-1" vertex="1">
          <mxGeometry x="-640" y="400" width="120" height="60" as="geometry" />
        </mxCell>
        <mxCell id="cJ8bBeuv6TMHrRIrgCWG-34" style="edgeStyle=orthogonalEdgeStyle;rounded=0;orthogonalLoop=1;jettySize=auto;html=1;entryX=0;entryY=0.5;entryDx=0;entryDy=0;startArrow=none;startFill=0;exitX=0.5;exitY=1;exitDx=0;exitDy=0;" parent="7mjDbSbkMEDv-3-ZkeOp-1" source="cJ8bBeuv6TMHrRIrgCWG-36" target="cJ8bBeuv6TMHrRIrgCWG-38" edge="1">
          <mxGeometry relative="1" as="geometry" />
        </mxCell>
        <mxCell id="cJ8bBeuv6TMHrRIrgCWG-35" style="edgeStyle=orthogonalEdgeStyle;rounded=0;orthogonalLoop=1;jettySize=auto;html=1;entryX=0;entryY=0.5;entryDx=0;entryDy=0;startArrow=none;startFill=0;" parent="7mjDbSbkMEDv-3-ZkeOp-1" source="cJ8bBeuv6TMHrRIrgCWG-36" target="cJ8bBeuv6TMHrRIrgCWG-40" edge="1">
          <mxGeometry relative="1" as="geometry">
            <Array as="points">
              <mxPoint x="-580" y="635" />
            </Array>
          </mxGeometry>
        </mxCell>
        <mxCell id="cJ8bBeuv6TMHrRIrgCWG-36" value="Schema" style="rounded=0;whiteSpace=wrap;html=1;fillColor=#d0cee2;strokeColor=#56517e;" parent="7mjDbSbkMEDv-3-ZkeOp-1" vertex="1">
          <mxGeometry x="-650" y="510" width="140" height="30" as="geometry" />
        </mxCell>
        <mxCell id="cJ8bBeuv6TMHrRIrgCWG-37" style="edgeStyle=orthogonalEdgeStyle;rounded=0;orthogonalLoop=1;jettySize=auto;html=1;startArrow=none;startFill=0;endArrow=classic;endFill=1;strokeWidth=2;strokeColor=#67AB9F;" parent="7mjDbSbkMEDv-3-ZkeOp-1" source="cJ8bBeuv6TMHrRIrgCWG-38" edge="1">
          <mxGeometry relative="1" as="geometry">
            <mxPoint x="-310" y="595" as="targetPoint" />
          </mxGeometry>
        </mxCell>
        <mxCell id="cJ8bBeuv6TMHrRIrgCWG-38" value="Col 1" style="rounded=0;whiteSpace=wrap;html=1;fillColor=#d0cee2;strokeColor=#56517e;" parent="7mjDbSbkMEDv-3-ZkeOp-1" vertex="1">
          <mxGeometry x="-530" y="580" width="60" height="30" as="geometry" />
        </mxCell>
        <mxCell id="cJ8bBeuv6TMHrRIrgCWG-39" style="edgeStyle=orthogonalEdgeStyle;rounded=0;orthogonalLoop=1;jettySize=auto;html=1;exitX=1;exitY=0.5;exitDx=0;exitDy=0;startArrow=none;startFill=0;endArrow=classic;endFill=1;strokeWidth=2;strokeColor=#67AB9F;entryX=0;entryY=0.5;entryDx=0;entryDy=0;" parent="7mjDbSbkMEDv-3-ZkeOp-1" source="cJ8bBeuv6TMHrRIrgCWG-40" target="cJ8bBeuv6TMHrRIrgCWG-31" edge="1">
          <mxGeometry relative="1" as="geometry">
            <mxPoint x="-310" y="635" as="targetPoint" />
          </mxGeometry>
        </mxCell>
        <mxCell id="cJ8bBeuv6TMHrRIrgCWG-40" value="Col 2" style="rounded=0;whiteSpace=wrap;html=1;fillColor=#d0cee2;strokeColor=#56517e;" parent="7mjDbSbkMEDv-3-ZkeOp-1" vertex="1">
          <mxGeometry x="-530" y="620" width="60" height="30" as="geometry" />
        </mxCell>
        <mxCell id="cJ8bBeuv6TMHrRIrgCWG-41" value="LineageMapping" style="text;html=1;align=center;verticalAlign=middle;resizable=0;points=[];;autosize=1;fontStyle=1;fillColor=#67AB9F;fontColor=#FFFFFF;" parent="7mjDbSbkMEDv-3-ZkeOp-1" vertex="1">
          <mxGeometry x="-448" y="569" width="110" height="20" as="geometry" />
        </mxCell>
        <mxCell id="cJ8bBeuv6TMHrRIrgCWG-44" style="edgeStyle=orthogonalEdgeStyle;rounded=0;orthogonalLoop=1;jettySize=auto;html=1;entryX=0.5;entryY=0;entryDx=0;entryDy=0;startArrow=none;startFill=0;endArrow=classic;endFill=1;strokeColor=default;exitX=0;exitY=0.5;exitDx=0;exitDy=0;" parent="7mjDbSbkMEDv-3-ZkeOp-1" source="cJ8bBeuv6TMHrRIrgCWG-42" target="cJ8bBeuv6TMHrRIrgCWG-30" edge="1">
          <mxGeometry relative="1" as="geometry" />
        </mxCell>
        <mxCell id="myLyxPm9p12b3K1-r2xD-7" style="edgeStyle=orthogonalEdgeStyle;rounded=0;orthogonalLoop=1;jettySize=auto;html=1;exitX=0;exitY=0.5;exitDx=0;exitDy=0;entryX=0.5;entryY=0;entryDx=0;entryDy=0;startArrow=none;startFill=0;endArrow=classic;endFill=1;strokeColor=default;" parent="7mjDbSbkMEDv-3-ZkeOp-1" source="cJ8bBeuv6TMHrRIrgCWG-42" target="cJ8bBeuv6TMHrRIrgCWG-31" edge="1">
          <mxGeometry relative="1" as="geometry" />
        </mxCell>
        <mxCell id="cJ8bBeuv6TMHrRIrgCWG-42" value="Schema" style="rounded=0;whiteSpace=wrap;html=1;fillColor=#d0cee2;strokeColor=#56517e;" parent="7mjDbSbkMEDv-3-ZkeOp-1" vertex="1">
          <mxGeometry x="-190" y="510" width="60" height="30" as="geometry" />
        </mxCell>
        <mxCell id="myLyxPm9p12b3K1-r2xD-8" style="edgeStyle=orthogonalEdgeStyle;rounded=0;orthogonalLoop=1;jettySize=auto;html=1;entryX=0.5;entryY=0;entryDx=0;entryDy=0;startArrow=none;startFill=0;endArrow=classic;endFill=1;strokeColor=default;" parent="7mjDbSbkMEDv-3-ZkeOp-1" source="cJ8bBeuv6TMHrRIrgCWG-43" target="myLyxPm9p12b3K1-r2xD-0" edge="1">
          <mxGeometry relative="1" as="geometry" />
        </mxCell>
        <mxCell id="cJ8bBeuv6TMHrRIrgCWG-43" value="Schema" style="rounded=0;whiteSpace=wrap;html=1;fillColor=#d0cee2;strokeColor=#56517e;" parent="7mjDbSbkMEDv-3-ZkeOp-1" vertex="1">
          <mxGeometry x="220" y="510" width="60" height="30" as="geometry" />
        </mxCell>
        <mxCell id="cJ8bBeuv6TMHrRIrgCWG-51" style="edgeStyle=orthogonalEdgeStyle;rounded=0;orthogonalLoop=1;jettySize=auto;html=1;entryX=0;entryY=0.5;entryDx=0;entryDy=0;startArrow=none;startFill=0;endArrow=classic;endFill=1;strokeColor=#67AB9F;strokeWidth=2;" parent="7mjDbSbkMEDv-3-ZkeOp-1" source="cJ8bBeuv6TMHrRIrgCWG-48" target="cJ8bBeuv6TMHrRIrgCWG-50" edge="1">
          <mxGeometry relative="1" as="geometry" />
        </mxCell>
        <mxCell id="cJ8bBeuv6TMHrRIrgCWG-48" value="CSV&lt;br&gt;DataStore" style="rounded=1;whiteSpace=wrap;html=1;fillColor=#b0e3e6;strokeColor=#0e8088;" parent="7mjDbSbkMEDv-3-ZkeOp-1" vertex="1">
          <mxGeometry x="-397" y="160" width="120" height="60" as="geometry" />
        </mxCell>
        <mxCell id="cJ8bBeuv6TMHrRIrgCWG-49" value="CSV&lt;br&gt;DataStore" style="rounded=1;whiteSpace=wrap;html=1;fillColor=#b0e3e6;strokeColor=#0e8088;" parent="7mjDbSbkMEDv-3-ZkeOp-1" vertex="1">
          <mxGeometry x="233" y="160" width="120" height="60" as="geometry" />
        </mxCell>
        <mxCell id="cJ8bBeuv6TMHrRIrgCWG-52" style="edgeStyle=orthogonalEdgeStyle;rounded=0;orthogonalLoop=1;jettySize=auto;html=1;entryX=0;entryY=0.5;entryDx=0;entryDy=0;startArrow=none;startFill=0;endArrow=classic;endFill=1;strokeColor=#67AB9F;strokeWidth=2;" parent="7mjDbSbkMEDv-3-ZkeOp-1" source="cJ8bBeuv6TMHrRIrgCWG-50" target="cJ8bBeuv6TMHrRIrgCWG-49" edge="1">
          <mxGeometry relative="1" as="geometry" />
        </mxCell>
        <mxCell id="cJ8bBeuv6TMHrRIrgCWG-50" value="Process" style="rounded=1;whiteSpace=wrap;html=1;fillColor=#b0e3e6;strokeColor=#0e8088;shadow=1;" parent="7mjDbSbkMEDv-3-ZkeOp-1" vertex="1">
          <mxGeometry x="-57" y="160" width="120" height="60" as="geometry" />
        </mxCell>
        <mxCell id="myLyxPm9p12b3K1-r2xD-16" style="edgeStyle=orthogonalEdgeStyle;rounded=0;orthogonalLoop=1;jettySize=auto;html=1;entryX=0;entryY=0.5;entryDx=0;entryDy=0;startArrow=none;startFill=0;endArrow=classic;endFill=1;strokeColor=#67AB9F;strokeWidth=2;" parent="7mjDbSbkMEDv-3-ZkeOp-1" source="myLyxPm9p12b3K1-r2xD-0" target="myLyxPm9p12b3K1-r2xD-1" edge="1">
          <mxGeometry relative="1" as="geometry" />
        </mxCell>
        <mxCell id="myLyxPm9p12b3K1-r2xD-0" value="Param 3" style="rounded=0;whiteSpace=wrap;html=1;fillColor=#d0cee2;strokeColor=#56517e;" parent="7mjDbSbkMEDv-3-ZkeOp-1" vertex="1">
          <mxGeometry x="330" y="580" width="60" height="30" as="geometry" />
        </mxCell>
        <mxCell id="myLyxPm9p12b3K1-r2xD-1" value="Column 1" style="rounded=0;whiteSpace=wrap;html=1;fillColor=#d0cee2;strokeColor=#56517e;" parent="7mjDbSbkMEDv-3-ZkeOp-1" vertex="1">
          <mxGeometry x="530" y="580" width="60" height="30" as="geometry" />
        </mxCell>
        <mxCell id="myLyxPm9p12b3K1-r2xD-14" style="edgeStyle=orthogonalEdgeStyle;rounded=0;orthogonalLoop=1;jettySize=auto;html=1;entryX=0.5;entryY=0;entryDx=0;entryDy=0;startArrow=none;startFill=0;endArrow=classic;endFill=1;strokeColor=default;exitX=0;exitY=0.5;exitDx=0;exitDy=0;" parent="7mjDbSbkMEDv-3-ZkeOp-1" source="myLyxPm9p12b3K1-r2xD-2" target="myLyxPm9p12b3K1-r2xD-1" edge="1">
          <mxGeometry relative="1" as="geometry" />
        </mxCell>
        <mxCell id="myLyxPm9p12b3K1-r2xD-2" value="Table" style="rounded=0;whiteSpace=wrap;html=1;fillColor=#d0cee2;strokeColor=#56517e;" parent="7mjDbSbkMEDv-3-ZkeOp-1" vertex="1">
          <mxGeometry x="580" y="510" width="140" height="30" as="geometry" />
        </mxCell>
        <mxCell id="myLyxPm9p12b3K1-r2xD-9" value="LineageMapping" style="text;html=1;align=center;verticalAlign=middle;resizable=0;points=[];;autosize=1;fontStyle=1;fillColor=#67AB9F;fontColor=#FFFFFF;" parent="7mjDbSbkMEDv-3-ZkeOp-1" vertex="1">
          <mxGeometry x="-52" y="565" width="110" height="20" as="geometry" />
        </mxCell>
        <mxCell id="myLyxPm9p12b3K1-r2xD-15" style="edgeStyle=orthogonalEdgeStyle;rounded=0;orthogonalLoop=1;jettySize=auto;html=1;entryX=0.5;entryY=0;entryDx=0;entryDy=0;startArrow=none;startFill=0;endArrow=classic;endFill=1;strokeColor=default;" parent="7mjDbSbkMEDv-3-ZkeOp-1" source="myLyxPm9p12b3K1-r2xD-10" target="myLyxPm9p12b3K1-r2xD-2" edge="1">
          <mxGeometry relative="1" as="geometry" />
        </mxCell>
        <mxCell id="myLyxPm9p12b3K1-r2xD-10" value="Database" style="rounded=1;whiteSpace=wrap;html=1;fillColor=#b0e3e6;strokeColor=#0e8088;shadow=1;" parent="7mjDbSbkMEDv-3-ZkeOp-1" vertex="1">
          <mxGeometry x="590" y="400" width="120" height="60" as="geometry" />
        </mxCell>
        <mxCell id="myLyxPm9p12b3K1-r2xD-19" value="LineageMapping" style="text;html=1;align=center;verticalAlign=middle;resizable=0;points=[];;autosize=1;fontStyle=1;fillColor=#67AB9F;fontColor=#FFFFFF;" parent="7mjDbSbkMEDv-3-ZkeOp-1" vertex="1">
          <mxGeometry x="400" y="560" width="110" height="20" as="geometry" />
        </mxCell>
        <mxCell id="myLyxPm9p12b3K1-r2xD-20" value="&lt;font color=&quot;#ffffff&quot;&gt;LineageMapping&lt;/font&gt;" style="text;html=1;align=center;verticalAlign=middle;resizable=0;points=[];;autosize=1;fontStyle=1;fillColor=#67AB9F;" parent="7mjDbSbkMEDv-3-ZkeOp-1" vertex="1">
          <mxGeometry x="-220" y="150" width="110" height="20" as="geometry" />
        </mxCell>
        <mxCell id="myLyxPm9p12b3K1-r2xD-21" value="LineageMapping" style="text;html=1;align=center;verticalAlign=middle;resizable=0;points=[];;autosize=1;fontStyle=1;fillColor=#67AB9F;fontColor=#FFFFFF;" parent="7mjDbSbkMEDv-3-ZkeOp-1" vertex="1">
          <mxGeometry x="90" y="150" width="110" height="20" as="geometry" />
        </mxCell>
      </root>
    </mxGraphModel>
  </diagram>
  <diagram id="u4sw5a4J79a9azdTIVLx" name="vertical-view">
    <mxGraphModel dx="2515" dy="816" grid="1" gridSize="10" guides="1" tooltips="1" connect="1" arrows="1" fold="1" page="1" pageScale="1" pageWidth="1169" pageHeight="827" math="0" shadow="0">
      <root>
        <mxCell id="4TRWXbWCNOr3deExxZwU-0" />
        <mxCell id="4TRWXbWCNOr3deExxZwU-1" parent="4TRWXbWCNOr3deExxZwU-0" />
        <mxCell id="4TRWXbWCNOr3deExxZwU-2" value="Column" style="rounded=0;whiteSpace=wrap;html=1;fillColor=#d0cee2;strokeColor=#56517e;" parent="4TRWXbWCNOr3deExxZwU-1" vertex="1">
          <mxGeometry x="-945" y="570" width="110" height="30" as="geometry" />
        </mxCell>
        <mxCell id="4TRWXbWCNOr3deExxZwU-3" style="edgeStyle=orthogonalEdgeStyle;rounded=0;orthogonalLoop=1;jettySize=auto;html=1;entryX=0.5;entryY=0;entryDx=0;entryDy=0;startArrow=none;startFill=0;endArrow=classic;endFill=1;strokeColor=default;exitX=0.5;exitY=1;exitDx=0;exitDy=0;" parent="4TRWXbWCNOr3deExxZwU-1" source="4TRWXbWCNOr3deExxZwU-4" target="4TRWXbWCNOr3deExxZwU-2" edge="1">
          <mxGeometry relative="1" as="geometry" />
        </mxCell>
        <mxCell id="4TRWXbWCNOr3deExxZwU-4" value="Table" style="rounded=0;whiteSpace=wrap;html=1;fillColor=#d0cee2;strokeColor=#56517e;" parent="4TRWXbWCNOr3deExxZwU-1" vertex="1">
          <mxGeometry x="-960" y="450" width="140" height="30" as="geometry" />
        </mxCell>
        <mxCell id="4TRWXbWCNOr3deExxZwU-5" style="edgeStyle=orthogonalEdgeStyle;rounded=0;orthogonalLoop=1;jettySize=auto;html=1;entryX=0.5;entryY=0;entryDx=0;entryDy=0;startArrow=none;startFill=0;endArrow=classic;endFill=1;strokeColor=default;" parent="4TRWXbWCNOr3deExxZwU-1" source="4TRWXbWCNOr3deExxZwU-6" target="4TRWXbWCNOr3deExxZwU-4" edge="1">
          <mxGeometry relative="1" as="geometry" />
        </mxCell>
        <mxCell id="4TRWXbWCNOr3deExxZwU-6" value="Database" style="rounded=1;whiteSpace=wrap;html=1;fillColor=#b0e3e6;strokeColor=#0e8088;shadow=1;" parent="4TRWXbWCNOr3deExxZwU-1" vertex="1">
          <mxGeometry x="-1090" y="370" width="120" height="60" as="geometry" />
        </mxCell>
        <mxCell id="4TRWXbWCNOr3deExxZwU-7" style="edgeStyle=orthogonalEdgeStyle;rounded=0;orthogonalLoop=1;jettySize=auto;html=1;startArrow=none;startFill=0;endArrow=classic;endFill=1;strokeColor=default;" parent="4TRWXbWCNOr3deExxZwU-1" source="4TRWXbWCNOr3deExxZwU-9" edge="1">
          <mxGeometry relative="1" as="geometry">
            <mxPoint x="-577" y="270" as="targetPoint" />
            <Array as="points">
              <mxPoint x="-660" y="181" />
              <mxPoint x="-577" y="181" />
              <mxPoint x="-577" y="270" />
            </Array>
          </mxGeometry>
        </mxCell>
        <mxCell id="4TRWXbWCNOr3deExxZwU-8" style="edgeStyle=orthogonalEdgeStyle;rounded=0;orthogonalLoop=1;jettySize=auto;html=1;entryX=0.5;entryY=0;entryDx=0;entryDy=0;startArrow=none;startFill=0;endArrow=classic;endFill=1;strokeColor=default;" parent="4TRWXbWCNOr3deExxZwU-1" source="4TRWXbWCNOr3deExxZwU-9" target="4TRWXbWCNOr3deExxZwU-15" edge="1">
          <mxGeometry relative="1" as="geometry">
            <Array as="points">
              <mxPoint x="-660" y="181" />
              <mxPoint x="-730" y="181" />
            </Array>
          </mxGeometry>
        </mxCell>
        <mxCell id="4TRWXbWCNOr3deExxZwU-9" value="Glossary" style="rounded=1;whiteSpace=wrap;html=1;fillColor=#f5f5f5;strokeColor=#666666;shadow=1;fontColor=#333333;" parent="4TRWXbWCNOr3deExxZwU-1" vertex="1">
          <mxGeometry x="-720" y="100" width="120" height="60" as="geometry" />
        </mxCell>
        <mxCell id="4TRWXbWCNOr3deExxZwU-10" style="edgeStyle=orthogonalEdgeStyle;rounded=0;orthogonalLoop=1;jettySize=auto;html=1;startArrow=none;startFill=0;endArrow=classic;endFill=1;strokeColor=#67AB9F;entryX=1;entryY=0.5;entryDx=0;entryDy=0;exitX=0.5;exitY=1;exitDx=0;exitDy=0;strokeWidth=2;curved=1;" parent="4TRWXbWCNOr3deExxZwU-1" source="4TRWXbWCNOr3deExxZwU-12" target="4TRWXbWCNOr3deExxZwU-2" edge="1">
          <mxGeometry relative="1" as="geometry">
            <mxPoint x="-760" y="600" as="targetPoint" />
          </mxGeometry>
        </mxCell>
        <mxCell id="4TRWXbWCNOr3deExxZwU-11" style="edgeStyle=orthogonalEdgeStyle;rounded=0;orthogonalLoop=1;jettySize=auto;html=1;entryX=0;entryY=0.5;entryDx=0;entryDy=0;startArrow=none;startFill=0;endArrow=classic;endFill=1;strokeColor=#67AB9F;exitX=0.5;exitY=1;exitDx=0;exitDy=0;strokeWidth=2;curved=1;" parent="4TRWXbWCNOr3deExxZwU-1" source="4TRWXbWCNOr3deExxZwU-12" target="4TRWXbWCNOr3deExxZwU-20" edge="1">
          <mxGeometry relative="1" as="geometry" />
        </mxCell>
        <mxCell id="4TRWXbWCNOr3deExxZwU-12" value="GlossaryTerm&lt;br&gt;(First Name)" style="rounded=1;whiteSpace=wrap;html=1;fillColor=#f5f5f5;strokeColor=#666666;shadow=1;fontColor=#333333;" parent="4TRWXbWCNOr3deExxZwU-1" vertex="1">
          <mxGeometry x="-630" y="271" width="120" height="60" as="geometry" />
        </mxCell>
        <mxCell id="4TRWXbWCNOr3deExxZwU-13" style="edgeStyle=orthogonalEdgeStyle;rounded=0;orthogonalLoop=1;jettySize=auto;html=1;exitX=0.5;exitY=1;exitDx=0;exitDy=0;startArrow=none;startFill=0;endArrow=classic;endFill=1;strokeColor=#67AB9F;entryX=1;entryY=0.5;entryDx=0;entryDy=0;strokeWidth=2;curved=1;" parent="4TRWXbWCNOr3deExxZwU-1" source="4TRWXbWCNOr3deExxZwU-15" target="4TRWXbWCNOr3deExxZwU-4" edge="1">
          <mxGeometry relative="1" as="geometry" />
        </mxCell>
        <mxCell id="4TRWXbWCNOr3deExxZwU-14" style="edgeStyle=orthogonalEdgeStyle;rounded=0;orthogonalLoop=1;jettySize=auto;html=1;entryX=0;entryY=0.5;entryDx=0;entryDy=0;startArrow=none;startFill=0;endArrow=classic;endFill=1;strokeColor=#67AB9F;exitX=0.5;exitY=1;exitDx=0;exitDy=0;strokeWidth=2;curved=1;" parent="4TRWXbWCNOr3deExxZwU-1" source="4TRWXbWCNOr3deExxZwU-15" target="4TRWXbWCNOr3deExxZwU-19" edge="1">
          <mxGeometry relative="1" as="geometry" />
        </mxCell>
        <mxCell id="4TRWXbWCNOr3deExxZwU-15" value="GlossaryTerm (Employee)" style="rounded=1;whiteSpace=wrap;html=1;fillColor=#f5f5f5;strokeColor=#666666;shadow=1;fontColor=#333333;" parent="4TRWXbWCNOr3deExxZwU-1" vertex="1">
          <mxGeometry x="-790" y="200" width="120" height="60" as="geometry" />
        </mxCell>
        <mxCell id="4TRWXbWCNOr3deExxZwU-16" style="edgeStyle=orthogonalEdgeStyle;rounded=0;orthogonalLoop=1;jettySize=auto;html=1;entryX=0.5;entryY=0;entryDx=0;entryDy=0;startArrow=none;startFill=0;endArrow=classic;endFill=1;strokeColor=default;exitX=0;exitY=0.5;exitDx=0;exitDy=0;" parent="4TRWXbWCNOr3deExxZwU-1" source="4TRWXbWCNOr3deExxZwU-17" target="4TRWXbWCNOr3deExxZwU-19" edge="1">
          <mxGeometry relative="1" as="geometry" />
        </mxCell>
        <mxCell id="4TRWXbWCNOr3deExxZwU-17" value="CSV&lt;br&gt;DataStore" style="rounded=1;whiteSpace=wrap;html=1;fillColor=#b0e3e6;strokeColor=#0e8088;" parent="4TRWXbWCNOr3deExxZwU-1" vertex="1">
          <mxGeometry x="-270" y="370" width="120" height="60" as="geometry" />
        </mxCell>
        <mxCell id="4TRWXbWCNOr3deExxZwU-18" style="edgeStyle=orthogonalEdgeStyle;rounded=0;orthogonalLoop=1;jettySize=auto;html=1;entryX=0.5;entryY=0;entryDx=0;entryDy=0;startArrow=none;startFill=0;endArrow=classic;endFill=1;strokeColor=default;" parent="4TRWXbWCNOr3deExxZwU-1" source="4TRWXbWCNOr3deExxZwU-19" target="4TRWXbWCNOr3deExxZwU-20" edge="1">
          <mxGeometry relative="1" as="geometry" />
        </mxCell>
        <mxCell id="4TRWXbWCNOr3deExxZwU-19" value="Schema" style="rounded=0;whiteSpace=wrap;html=1;fillColor=#d0cee2;strokeColor=#56517e;" parent="4TRWXbWCNOr3deExxZwU-1" vertex="1">
          <mxGeometry x="-430" y="450" width="140" height="30" as="geometry" />
        </mxCell>
        <mxCell id="4TRWXbWCNOr3deExxZwU-20" value="Column" style="rounded=0;whiteSpace=wrap;html=1;fillColor=#d0cee2;strokeColor=#56517e;" parent="4TRWXbWCNOr3deExxZwU-1" vertex="1">
          <mxGeometry x="-410" y="570" width="100" height="30" as="geometry" />
        </mxCell>
        <mxCell id="4TRWXbWCNOr3deExxZwU-21" value="SemanticAssignment" style="text;html=1;align=center;verticalAlign=middle;resizable=0;points=[];;autosize=1;fontStyle=1;fillColor=#67AB9F;fontColor=#FFFFFF;" parent="4TRWXbWCNOr3deExxZwU-1" vertex="1">
          <mxGeometry x="-760" y="455" width="140" height="20" as="geometry" />
        </mxCell>
        <mxCell id="4TRWXbWCNOr3deExxZwU-22" value="SemanticAssignment" style="text;html=1;align=center;verticalAlign=middle;resizable=0;points=[];;autosize=1;fontStyle=1;fillColor=#67AB9F;fontColor=#FFFFFF;" parent="4TRWXbWCNOr3deExxZwU-1" vertex="1">
          <mxGeometry x="-660" y="560" width="140" height="20" as="geometry" />
        </mxCell>
      </root>
    </mxGraphModel>
  </diagram>
</mxfile>
